solid PYVISTA_1
facet normal -6.331127476180255e-15 1.8993382428541063e-14 -1.0
  outer loop
    vertex -161.6749054458235 31.513176586737462 31.728446513762094
    vertex 112.23643052716136 27.949872586737644 31.728446513760296
    vertex -161.6749054458235 27.94987258673752 31.728446513762027
  endloop
endfacet
facet normal -6.331127476180255e-15 1.8993382428541063e-14 -1.0
  outer loop
    vertex 112.23643052716136 27.949872586737644 31.728446513760296
    vertex -161.6749054458235 31.513176586737462 31.728446513762094
    vertex 112.23643052716136 31.513176586737586 31.728446513760364
  endloop
endfacet
facet normal -4.440892098500609e-16 1.0 6.3311274761802515e-15
  outer loop
    vertex -161.6749054458235 31.513176586737462 31.728446513762094
    vertex 112.23643052716211 31.513176586736837 150.3054625137604
    vertex 112.23643052716136 31.513176586737586 31.728446513760364
  endloop
endfacet
facet normal -4.440892098500609e-16 1.0 6.3311274761802515e-15
  outer loop
    vertex 112.23643052716211 31.513176586736837 150.3054625137604
    vertex -161.6749054458235 31.513176586737462 31.728446513762094
    vertex -161.67490544582273 31.513176586736712 150.30546251376214
  endloop
endfacet
facet normal -1.0 -4.44089209850101e-16 6.331127476180246e-15
  outer loop
    vertex -161.67490544582273 27.94987258673668 150.30546251376214
    vertex -161.6749054458235 31.513176586737462 31.728446513762094
    vertex -161.6749054458235 27.94987258673752 31.728446513762027
  endloop
endfacet
facet normal -1.0 -4.44089209850101e-16 6.331127476180246e-15
  outer loop
    vertex -161.6749054458235 31.513176586737462 31.728446513762094
    vertex -161.67490544582273 27.94987258673668 150.30546251376214
    vertex -161.67490544582273 31.513176586736712 150.30546251376214
  endloop
endfacet
facet normal 4.4408920985005606e-16 -1.0 -7.092142810227219e-15
  outer loop
    vertex -161.67490544582273 27.94987258673668 150.30546251376214
    vertex 112.23643052716136 27.949872586737644 31.728446513760296
    vertex 112.23643052716211 27.949872586736802 150.3054625137604
  endloop
endfacet
facet normal 4.4408920985005606e-16 -1.0 -7.092142810227219e-15
  outer loop
    vertex 112.23643052716136 27.949872586737644 31.728446513760296
    vertex -161.67490544582273 27.94987258673668 150.30546251376214
    vertex -161.6749054458235 27.94987258673752 31.728446513762027
  endloop
endfacet
facet normal 6.331127476180246e-15 -7.888609052210118e-31 1.0
  outer loop
    vertex 112.23643052716211 31.513176586736837 150.3054625137604
    vertex -161.67490544582273 27.94987258673668 150.30546251376214
    vertex 112.23643052716211 27.949872586736802 150.3054625137604
  endloop
endfacet
facet normal 6.331127476180246e-15 -7.888609052210118e-31 1.0
  outer loop
    vertex -161.67490544582273 27.94987258673668 150.30546251376214
    vertex 112.23643052716211 31.513176586736837 150.3054625137604
    vertex -161.67490544582273 31.513176586736712 150.30546251376214
  endloop
endfacet
facet normal 1.0 4.44089209850101e-16 -6.331127476180246e-15
  outer loop
    vertex 112.23643052716136 31.513176586737586 31.728446513760364
    vertex 112.23643052716211 27.949872586736802 150.3054625137604
    vertex 112.23643052716136 27.949872586737644 31.728446513760296
  endloop
endfacet
facet normal 1.0 4.44089209850101e-16 -6.331127476180246e-15
  outer loop
    vertex 112.23643052716211 27.949872586736802 150.3054625137604
    vertex 112.23643052716136 31.513176586737586 31.728446513760364
    vertex 112.23643052716211 31.513176586736837 150.3054625137604
  endloop
endfacet
facet normal 1.2662254952360814e-14 0.0 -1.0
  outer loop
    vertex -161.6749054458228 207.8393209417506 31.728446513762083
    vertex -165.23820944582272 27.949872586736703 31.728446513762044
    vertex -165.23820944582272 207.8393209417506 31.728446513762037
  endloop
endfacet
facet normal 1.2662254952360814e-14 0.0 -1.0
  outer loop
    vertex -165.23820944582272 27.949872586736703 31.728446513762044
    vertex -161.6749054458228 207.8393209417506 31.728446513762083
    vertex -161.6749054458228 27.949872586736703 31.728446513762087
  endloop
endfacet
facet normal 1.0 8.196268981833998e-34 0.0
  outer loop
    vertex -161.6749054458228 207.8393209417506 31.728446513762083
    vertex -161.6749054458228 27.949872586736703 150.30546251376214
    vertex -161.6749054458228 27.949872586736703 31.728446513762087
  endloop
endfacet
facet normal 1.0 8.196268981833998e-34 0.0
  outer loop
    vertex -161.6749054458228 27.949872586736703 150.30546251376214
    vertex -161.6749054458228 207.8393209417506 31.728446513762083
    vertex -161.6749054458228 207.83932094175066 150.30546251376217
  endloop
endfacet
facet normal 8.196268981833998e-34 1.0 0.0
  outer loop
    vertex -165.2382094458228 207.83932094175066 150.3054625137622
    vertex -161.6749054458228 207.8393209417506 31.728446513762083
    vertex -165.23820944582272 207.8393209417506 31.728446513762037
  endloop
endfacet
facet normal 8.196268981833998e-34 1.0 0.0
  outer loop
    vertex -161.6749054458228 207.8393209417506 31.728446513762083
    vertex -165.2382094458228 207.83932094175066 150.3054625137622
    vertex -161.6749054458228 207.83932094175066 150.30546251376217
  endloop
endfacet
facet normal -1.0 1.0144323090519676e-32 -7.610153340469676e-16
  outer loop
    vertex -165.2382094458228 27.949872586736724 150.30546251376217
    vertex -165.23820944582272 207.8393209417506 31.728446513762037
    vertex -165.23820944582272 27.949872586736703 31.728446513762044
  endloop
endfacet
facet normal -1.0 1.0144323090519676e-32 -7.610153340469676e-16
  outer loop
    vertex -165.23820944582272 207.8393209417506 31.728446513762037
    vertex -165.2382094458228 27.949872586736724 150.30546251376217
    vertex -165.2382094458228 207.83932094175066 150.3054625137622
  endloop
endfacet
facet normal 6.3311274761802476e-15 0.0 1.0
  outer loop
    vertex -161.6749054458228 27.949872586736703 150.30546251376214
    vertex -165.2382094458228 207.83932094175066 150.3054625137622
    vertex -165.2382094458228 27.949872586736724 150.30546251376217
  endloop
endfacet
facet normal 6.3311274761802476e-15 0.0 1.0
  outer loop
    vertex -165.2382094458228 207.83932094175066 150.3054625137622
    vertex -161.6749054458228 27.949872586736703 150.30546251376214
    vertex -161.6749054458228 207.83932094175066 150.30546251376217
  endloop
endfacet
facet normal -8.196268981833998e-34 -1.0 0.0
  outer loop
    vertex -161.6749054458228 27.949872586736703 31.728446513762087
    vertex -165.2382094458228 27.949872586736724 150.30546251376217
    vertex -165.23820944582272 27.949872586736703 31.728446513762044
  endloop
endfacet
facet normal -8.196268981833998e-34 -1.0 0.0
  outer loop
    vertex -165.2382094458228 27.949872586736724 150.30546251376217
    vertex -161.6749054458228 27.949872586736703 31.728446513762087
    vertex -161.6749054458228 27.949872586736703 150.30546251376214
  endloop
endfacet
facet normal -6.331127476180255e-15 1.8993382428541063e-14 -1.0
  outer loop
    vertex -165.23820944582354 211.40262494175136 31.72844651376334
    vertex 118.75773047204109 207.83932094175154 31.728446513761472
    vertex -165.23820944582354 207.83932094175142 31.728446513763274
  endloop
endfacet
facet normal -6.331127476180255e-15 1.8993382428541063e-14 -1.0
  outer loop
    vertex 118.75773047204109 207.83932094175154 31.728446513761472
    vertex -165.23820944582354 211.40262494175136 31.72844651376334
    vertex 118.75773047204109 211.4026249417515 31.728446513761543
  endloop
endfacet
facet normal -4.440892098500609e-16 1.0 6.3311274761802515e-15
  outer loop
    vertex -165.23820944582354 211.40262494175136 31.72844651376334
    vertex 118.75773047204183 211.40262494175073 150.3054625137616
    vertex 118.75773047204109 211.4026249417515 31.728446513761543
  endloop
endfacet
facet normal -4.440892098500609e-16 1.0 6.3311274761802515e-15
  outer loop
    vertex 118.75773047204183 211.40262494175073 150.3054625137616
    vertex -165.23820944582354 211.40262494175136 31.72844651376334
    vertex -165.23820944582278 211.40262494175064 150.3054625137634
  endloop
endfacet
facet normal -1.0 -4.44089209850101e-16 6.331127476180246e-15
  outer loop
    vertex -165.23820944582278 207.8393209417506 150.3054625137634
    vertex -165.23820944582354 211.40262494175136 31.72844651376334
    vertex -165.23820944582354 207.83932094175142 31.728446513763274
  endloop
endfacet
facet normal -1.0 -4.44089209850101e-16 6.331127476180246e-15
  outer loop
    vertex -165.23820944582354 211.40262494175136 31.72844651376334
    vertex -165.23820944582278 207.8393209417506 150.3054625137634
    vertex -165.23820944582278 211.40262494175064 150.3054625137634
  endloop
endfacet
facet normal 4.4408920985005606e-16 -1.0 -7.092142810227219e-15
  outer loop
    vertex -165.23820944582278 207.8393209417506 150.3054625137634
    vertex 118.75773047204109 207.83932094175154 31.728446513761472
    vertex 118.75773047204183 207.83932094175069 150.3054625137616
  endloop
endfacet
facet normal 4.4408920985005606e-16 -1.0 -7.092142810227219e-15
  outer loop
    vertex 118.75773047204109 207.83932094175154 31.728446513761472
    vertex -165.23820944582278 207.8393209417506 150.3054625137634
    vertex -165.23820944582354 207.83932094175142 31.728446513763274
  endloop
endfacet
facet normal 6.331127476180246e-15 -7.888609052210118e-31 1.0
  outer loop
    vertex 118.75773047204183 211.40262494175073 150.3054625137616
    vertex -165.23820944582278 207.8393209417506 150.3054625137634
    vertex 118.75773047204183 207.83932094175069 150.3054625137616
  endloop
endfacet
facet normal 6.331127476180246e-15 -7.888609052210118e-31 1.0
  outer loop
    vertex -165.23820944582278 207.8393209417506 150.3054625137634
    vertex 118.75773047204183 211.40262494175073 150.3054625137616
    vertex -165.23820944582278 211.40262494175064 150.3054625137634
  endloop
endfacet
facet normal 1.0 4.44089209850101e-16 -6.331127476180246e-15
  outer loop
    vertex 118.75773047204109 211.4026249417515 31.728446513761543
    vertex 118.75773047204183 207.83932094175069 150.3054625137616
    vertex 118.75773047204109 207.83932094175154 31.728446513761472
  endloop
endfacet
facet normal 1.0 4.44089209850101e-16 -6.331127476180246e-15
  outer loop
    vertex 118.75773047204183 207.83932094175069 150.3054625137616
    vertex 118.75773047204109 211.4026249417515 31.728446513761543
    vertex 118.75773047204183 211.40262494175073 150.3054625137616
  endloop
endfacet
facet normal 1.0 1.9280819964513376e-16 -7.50873398429858e-17
  outer loop
    vertex 118.75773047204183 207.83932094175069 150.3054625137616
    vertex 118.75773047204179 162.94987258673663 117.85081351556609
    vertex 118.75773047204183 207.83932094175074 117.85081351556609
  endloop
endfacet
facet normal 1.0 1.9280819964513376e-16 -7.50873398429858e-17
  outer loop
    vertex 118.75773047204179 162.94987258673663 117.85081351556609
    vertex 118.75773047204183 207.83932094175069 150.3054625137616
    vertex 118.75773047204179 162.9498725867366 150.30546251376154
  endloop
endfacet
facet normal -2.293907313103275e-15 1.0 -5.04516727556114e-16
  outer loop
    vertex 114.75773047204193 207.8393209417506 30.350813515566028
    vertex 118.7577304720418 207.83932094175054 85.35081351556606
    vertex 118.7577304720418 207.8393209417506 30.350813515566067
  endloop
endfacet
facet normal -2.293907313103275e-15 1.0 -5.04516727556114e-16
  outer loop
    vertex 118.7577304720418 207.83932094175054 85.35081351556606
    vertex 114.75773047204193 207.8393209417506 30.350813515566028
    vertex 118.75773047204183 207.83932094175074 117.85081351556609
  endloop
endfacet
facet normal -2.293907313103275e-15 1.0 -5.04516727556114e-16
  outer loop
    vertex 118.75773047204183 207.83932094175074 117.85081351556609
    vertex 114.75773047204193 207.8393209417506 30.350813515566028
    vertex 118.75773047204183 207.83932094175069 150.3054625137616
  endloop
endfacet
facet normal -2.293907313103275e-15 1.0 -5.04516727556114e-16
  outer loop
    vertex 118.75773047204183 207.83932094175069 150.3054625137616
    vertex 114.75773047204193 207.8393209417506 30.350813515566028
    vertex 114.75773047204184 207.83932094175069 150.3054625137616
  endloop
endfacet
facet normal -1.0 -2.982247903607703e-16 -4.961576217399292e-16
  outer loop
    vertex 114.75773047204197 27.94987258673672 30.350813515566035
    vertex 114.75773047204194 117.96777366721136 85.35081351556607
    vertex 114.7577304720419 117.96777366721136 30.350813515566102
  endloop
endfacet
facet normal -1.0 -2.982247903607703e-16 -4.961576217399292e-16
  outer loop
    vertex 114.75773047204194 117.96777366721136 85.35081351556607
    vertex 114.75773047204197 27.94987258673672 30.350813515566035
    vertex 114.75773047204189 27.949872586736802 150.30546251376154
  endloop
endfacet
facet normal -1.0 -2.982247903607703e-16 -4.961576217399292e-16
  outer loop
    vertex 114.75773047204194 117.96777366721136 85.35081351556607
    vertex 114.75773047204189 27.949872586736802 150.30546251376154
    vertex 114.75773047204184 207.83932094175069 150.3054625137616
  endloop
endfacet
facet normal -1.0 -2.982247903607703e-16 -4.961576217399292e-16
  outer loop
    vertex 114.75773047204189 162.9498725867366 30.350813515566067
    vertex 114.75773047204184 207.83932094175069 150.3054625137616
    vertex 114.75773047204193 207.8393209417506 30.350813515566028
  endloop
endfacet
facet normal -1.0 -2.982247903607703e-16 -4.961576217399292e-16
  outer loop
    vertex 114.75773047204184 207.83932094175069 150.3054625137616
    vertex 114.75773047204189 162.9498725867366 30.350813515566067
    vertex 114.75773047204189 162.94987258673657 85.35081351556607
  endloop
endfacet
facet normal -1.0 -2.982247903607703e-16 -4.961576217399292e-16
  outer loop
    vertex 114.75773047204184 207.83932094175069 150.3054625137616
    vertex 114.75773047204189 162.94987258673657 85.35081351556607
    vertex 114.75773047204194 117.96777366721136 85.35081351556607
  endloop
endfacet
facet normal 6.331127476180246e-15 -7.888609052210118e-31 1.0
  outer loop
    vertex 118.7577304720418 72.95882312697417 150.30546251376148
    vertex 114.75773047204189 27.949872586736802 150.30546251376154
    vertex 118.75773047204187 27.949872586736713 150.30546251376148
  endloop
endfacet
facet normal 6.331127476180246e-15 -7.888609052210118e-31 1.0
  outer loop
    vertex 114.75773047204189 27.949872586736802 150.30546251376154
    vertex 118.7577304720418 72.95882312697417 150.30546251376148
    vertex 114.75773047204184 207.83932094175069 150.3054625137616
  endloop
endfacet
facet normal 6.331127476180246e-15 -7.888609052210118e-31 1.0
  outer loop
    vertex 114.75773047204184 207.83932094175069 150.3054625137616
    vertex 118.7577304720418 72.95882312697417 150.30546251376148
    vertex 118.7577304720418 117.96777366721136 150.30546251376154
  endloop
endfacet
facet normal 6.331127476180246e-15 -7.888609052210118e-31 1.0
  outer loop
    vertex 114.75773047204184 207.83932094175069 150.3054625137616
    vertex 118.7577304720418 117.96777366721136 150.30546251376154
    vertex 118.75773047204179 162.9498725867366 150.30546251376154
  endloop
endfacet
facet normal 6.331127476180246e-15 -7.888609052210118e-31 1.0
  outer loop
    vertex 114.75773047204184 207.83932094175069 150.3054625137616
    vertex 118.75773047204179 162.9498725867366 150.30546251376154
    vertex 118.75773047204183 207.83932094175069 150.3054625137616
  endloop
endfacet
facet normal -9.24431344795638e-15 -1.0 5.588211814035039e-17
  outer loop
    vertex 118.75773047204186 27.94987258673672 85.35081351556607
    vertex 114.75773047204197 27.94987258673672 30.350813515566035
    vertex 118.75773047204187 27.94987258673672 30.350813515566074
  endloop
endfacet
facet normal -9.24431344795638e-15 -1.0 5.588211814035039e-17
  outer loop
    vertex 114.75773047204197 27.94987258673672 30.350813515566035
    vertex 118.75773047204186 27.94987258673672 85.35081351556607
    vertex 118.75773047204187 27.94987258673672 117.82813801466379
  endloop
endfacet
facet normal -9.24431344795638e-15 -1.0 5.588211814035039e-17
  outer loop
    vertex 114.75773047204197 27.94987258673672 30.350813515566035
    vertex 118.75773047204187 27.94987258673672 117.82813801466379
    vertex 118.75773047204187 27.949872586736713 150.30546251376148
  endloop
endfacet
facet normal -9.24431344795638e-15 -1.0 5.588211814035039e-17
  outer loop
    vertex 114.75773047204197 27.94987258673672 30.350813515566035
    vertex 118.75773047204187 27.949872586736713 150.30546251376148
    vertex 114.75773047204189 27.949872586736802 150.30546251376154
  endloop
endfacet
facet normal 1.0 2.8745555983714943e-16 9.790800863964764e-19
  outer loop
    vertex 118.75773047204186 117.96777366721136 85.35081351556607
    vertex 118.75773047204186 72.95882312697408 30.350813515566074
    vertex 118.7577304720418 117.96777366721136 30.350813515566102
  endloop
endfacet
facet normal 1.0 2.8745555983714943e-16 9.790800863964764e-19
  outer loop
    vertex 118.75773047204186 72.95882312697408 30.350813515566074
    vertex 118.75773047204186 117.96777366721136 85.35081351556607
    vertex 118.75773047204186 72.9588231269741 85.35081351556607
  endloop
endfacet
facet normal 1.0 1.621486398267901e-16 -5.0293037778109875e-17
  outer loop
    vertex 118.75773047204186 72.9588231269741 85.35081351556607
    vertex 118.75773047204187 27.94987258673672 30.350813515566074
    vertex 118.75773047204186 72.95882312697408 30.350813515566074
  endloop
endfacet
facet normal 1.0 1.621486398267901e-16 -5.0293037778109875e-17
  outer loop
    vertex 118.75773047204187 27.94987258673672 30.350813515566074
    vertex 118.75773047204186 72.9588231269741 85.35081351556607
    vertex 118.75773047204186 27.94987258673672 85.35081351556607
  endloop
endfacet
facet normal 1.0 2.5601662873780454e-16 -7.508733984298659e-17
  outer loop
    vertex 118.75773047204179 162.9498725867366 150.30546251376154
    vertex 118.7577304720418 117.96777366721136 117.85081351556609
    vertex 118.75773047204179 162.94987258673663 117.85081351556609
  endloop
endfacet
facet normal 1.0 2.5601662873780454e-16 -7.508733984298659e-17
  outer loop
    vertex 118.7577304720418 117.96777366721136 117.85081351556609
    vertex 118.75773047204179 162.9498725867366 150.30546251376154
    vertex 118.7577304720418 117.96777366721136 150.30546251376154
  endloop
endfacet
facet normal 1.0 2.240093714083708e-16 -3.713210851954976e-17
  outer loop
    vertex 118.75773047204186 72.95882312697407 117.83947576511493
    vertex 118.75773047204186 27.94987258673672 85.35081351556607
    vertex 118.75773047204186 72.9588231269741 85.35081351556607
  endloop
endfacet
facet normal 1.0 2.240093714083708e-16 -3.713210851954976e-17
  outer loop
    vertex 118.75773047204186 27.94987258673672 85.35081351556607
    vertex 118.75773047204186 72.95882312697407 117.83947576511493
    vertex 118.75773047204187 27.94987258673672 117.82813801466379
  endloop
endfacet
facet normal 1.0 3.1798437378606326e-16 4.0559184302435704e-18
  outer loop
    vertex 118.7577304720418 117.96777366721136 117.85081351556609
    vertex 118.75773047204186 72.9588231269741 85.35081351556607
    vertex 118.75773047204186 117.96777366721136 85.35081351556607
  endloop
endfacet
facet normal 1.0 3.1798437378606326e-16 4.0559184302435704e-18
  outer loop
    vertex 118.75773047204186 72.9588231269741 85.35081351556607
    vertex 118.7577304720418 117.96777366721136 117.85081351556609
    vertex 118.75773047204186 72.95882312697407 117.83947576511493
  endloop
endfacet
facet normal 1.0 2.8703857847199677e-16 -5.0293037778109875e-17
  outer loop
    vertex 118.7577304720418 207.83932094175054 85.35081351556606
    vertex 118.75773047204179 162.9498725867366 30.350813515566074
    vertex 118.7577304720418 207.8393209417506 30.350813515566067
  endloop
endfacet
facet normal 1.0 2.8703857847199677e-16 -5.0293037778109875e-17
  outer loop
    vertex 118.75773047204179 162.9498725867366 30.350813515566074
    vertex 118.7577304720418 207.83932094175054 85.35081351556606
    vertex 118.75773047204179 162.94987258673657 85.35081351556607
  endloop
endfacet
facet normal 1.0 2.8666255653501213e-16 -3.4949665968173295e-17
  outer loop
    vertex 118.75773047204186 72.95882312697407 117.83947576511493
    vertex 118.75773047204187 27.949872586736713 150.30546251376148
    vertex 118.75773047204187 27.94987258673672 117.82813801466379
  endloop
endfacet
facet normal 1.0 2.8666255653501213e-16 -3.4949665968173295e-17
  outer loop
    vertex 118.75773047204187 27.949872586736713 150.30546251376148
    vertex 118.75773047204186 72.95882312697407 117.83947576511493
    vertex 118.7577304720418 72.95882312697417 150.30546251376148
  endloop
endfacet
facet normal 1.0 2.866622776440297e-16 -3.273536596805447e-17
  outer loop
    vertex 118.7577304720418 117.96777366721136 117.85081351556609
    vertex 118.7577304720418 72.95882312697417 150.30546251376148
    vertex 118.75773047204186 72.95882312697407 117.83947576511493
  endloop
endfacet
facet normal 1.0 2.866622776440297e-16 -3.273536596805447e-17
  outer loop
    vertex 118.7577304720418 72.95882312697417 150.30546251376148
    vertex 118.7577304720418 117.96777366721136 117.85081351556609
    vertex 118.7577304720418 117.96777366721136 150.30546251376154
  endloop
endfacet
facet normal 1.0 2.2421832592075507e-16 -4.0433015111865996e-17
  outer loop
    vertex 118.75773047204183 207.83932094175074 117.85081351556609
    vertex 118.75773047204179 162.94987258673657 85.35081351556607
    vertex 118.7577304720418 207.83932094175054 85.35081351556606
  endloop
endfacet
facet normal 1.0 2.2421832592075507e-16 -4.0433015111865996e-17
  outer loop
    vertex 118.75773047204179 162.94987258673657 85.35081351556607
    vertex 118.75773047204183 207.83932094175074 117.85081351556609
    vertex 118.75773047204179 162.94987258673663 117.85081351556609
  endloop
endfacet
facet normal 1.0 2.560166287378063e-16 2.951084619638468e-18
  outer loop
    vertex 118.75773047204179 162.94987258673663 117.85081351556609
    vertex 118.75773047204186 117.96777366721136 85.35081351556607
    vertex 118.75773047204179 162.94987258673657 85.35081351556607
  endloop
endfacet
facet normal 1.0 2.560166287378063e-16 2.951084619638468e-18
  outer loop
    vertex 118.75773047204186 117.96777366721136 85.35081351556607
    vertex 118.75773047204179 162.94987258673663 117.85081351556609
    vertex 118.7577304720418 117.96777366721136 117.85081351556609
  endloop
endfacet
facet normal 3.5387552127376298e-15 5.043556956984884e-16 -1.0
  outer loop
    vertex 114.7577304720419 117.96777366721136 30.350813515566102
    vertex 118.75773047204187 27.94987258673672 30.350813515566074
    vertex 114.75773047204197 27.94987258673672 30.350813515566035
  endloop
endfacet
facet normal 3.5387552127376298e-15 5.043556956984884e-16 -1.0
  outer loop
    vertex 118.75773047204187 27.94987258673672 30.350813515566074
    vertex 114.7577304720419 117.96777366721136 30.350813515566102
    vertex 118.75773047204186 72.95882312697408 30.350813515566074
  endloop
endfacet
facet normal 3.5387552127376298e-15 5.043556956984884e-16 -1.0
  outer loop
    vertex 118.75773047204186 72.95882312697408 30.350813515566074
    vertex 114.7577304720419 117.96777366721136 30.350813515566102
    vertex 118.7577304720418 117.96777366721136 30.350813515566102
  endloop
endfacet
facet normal 4.440892098500627e-16 -1.0 -5.886502753554416e-16
  outer loop
    vertex 118.75773047204179 162.94987258673657 85.35081351556607
    vertex 114.75773047204189 162.9498725867366 30.350813515566067
    vertex 118.75773047204179 162.9498725867366 30.350813515566074
  endloop
endfacet
facet normal 4.440892098500627e-16 -1.0 -5.886502753554416e-16
  outer loop
    vertex 114.75773047204189 162.9498725867366 30.350813515566067
    vertex 118.75773047204179 162.94987258673657 85.35081351556607
    vertex 114.75773047204189 162.94987258673657 85.35081351556607
  endloop
endfacet
facet normal 9.790800863972653e-19 -1.8872200237931342e-16 -1.0
  outer loop
    vertex 114.75773047204189 162.94987258673657 85.35081351556607
    vertex 118.75773047204186 117.96777366721136 85.35081351556607
    vertex 114.75773047204194 117.96777366721136 85.35081351556607
  endloop
endfacet
facet normal 9.790800863972653e-19 -1.8872200237931342e-16 -1.0
  outer loop
    vertex 118.75773047204186 117.96777366721136 85.35081351556607
    vertex 114.75773047204189 162.94987258673657 85.35081351556607
    vertex 118.75773047204179 162.94987258673657 85.35081351556607
  endloop
endfacet
facet normal -4.4408920985006257e-16 1.0 -2.3170361047667506e-16
  outer loop
    vertex 114.7577304720419 117.96777366721136 30.350813515566102
    vertex 118.75773047204186 117.96777366721136 85.35081351556607
    vertex 118.7577304720418 117.96777366721136 30.350813515566102
  endloop
endfacet
facet normal -4.4408920985006257e-16 1.0 -2.3170361047667506e-16
  outer loop
    vertex 118.75773047204186 117.96777366721136 85.35081351556607
    vertex 114.7577304720419 117.96777366721136 30.350813515566102
    vertex 114.75773047204194 117.96777366721136 85.35081351556607
  endloop
endfacet
facet normal 4.948738454011634e-15 -4.534597993538591e-16 -1.0
  outer loop
    vertex 114.75773047204193 207.8393209417506 30.350813515566028
    vertex 118.75773047204179 162.9498725867366 30.350813515566074
    vertex 114.75773047204189 162.9498725867366 30.350813515566067
  endloop
endfacet
facet normal 4.948738454011634e-15 -4.534597993538591e-16 -1.0
  outer loop
    vertex 118.75773047204179 162.9498725867366 30.350813515566074
    vertex 114.75773047204193 207.8393209417506 30.350813515566028
    vertex 118.7577304720418 207.8393209417506 30.350813515566067
  endloop
endfacet
facet normal 5.679253509861061e-15 0.38268343236508007 0.9238795325112908
  outer loop
    vertex 114.75773047204173 126.46777366721139 82.0828643231353
    vertex 113.6144154720419 125.98541175741641 82.28266516814455
    vertex 114.75773047204173 125.98541175741641 82.28266516814455
  endloop
endfacet
facet normal 5.679253509861061e-15 0.38268343236508007 0.9238795325112908
  outer loop
    vertex 113.6144154720419 125.98541175741641 82.28266516814455
    vertex 114.75773047204173 126.46777366721139 82.0828643231353
    vertex 113.6144154720419 126.46777366721139 82.08286432313531
  endloop
endfacet
facet normal 6.334929076529181e-15 -0.13052619222008108 0.9914448613738067
  outer loop
    vertex 114.75773047204173 125.46777366721139 82.35081351556641
    vertex 113.6144154720419 124.95013557700634 82.28266516814455
    vertex 114.75773047204173 124.95013557700634 82.28266516814453
  endloop
endfacet
facet normal 6.334929076529181e-15 -0.13052619222008108 0.9914448613738067
  outer loop
    vertex 113.6144154720419 124.95013557700634 82.28266516814455
    vertex 114.75773047204173 125.46777366721139 82.35081351556641
    vertex 113.6144154720419 125.46777366721139 82.35081351556643
  endloop
endfacet
facet normal 4.206465867657864e-15 -0.7933533402912186 0.6087614290087422
  outer loop
    vertex 113.6144154720419 124.05356010483828 81.7650270779395
    vertex 114.75773047204173 123.73572285964252 81.3508135155664
    vertex 114.75773047204173 124.05356010483828 81.7650270779395
  endloop
endfacet
facet normal 4.206465867657864e-15 -0.7933533402912186 0.6087614290087422
  outer loop
    vertex 114.75773047204173 123.73572285964252 81.3508135155664
    vertex 113.6144154720419 124.05356010483828 81.7650270779395
    vertex 113.6144154720419 123.73572285964252 81.35081351556641
  endloop
endfacet
facet normal 6.218998529393685e-15 0.13052619222006573 0.9914448613738087
  outer loop
    vertex 114.75773047204173 125.98541175741641 82.28266516814455
    vertex 113.6144154720419 125.46777366721139 82.35081351556643
    vertex 114.75773047204173 125.46777366721139 82.35081351556641
  endloop
endfacet
facet normal 6.218998529393685e-15 0.13052619222006573 0.9914448613738087
  outer loop
    vertex 113.6144154720419 125.46777366721139 82.35081351556643
    vertex 114.75773047204173 125.98541175741641 82.28266516814455
    vertex 113.6144154720419 125.98541175741641 82.28266516814455
  endloop
endfacet
facet normal 6.019144676064519e-15 -0.3826834323650842 0.9238795325112892
  outer loop
    vertex 114.75773047204173 124.95013557700634 82.28266516814453
    vertex 113.6144154720419 124.46777366721139 82.0828643231353
    vertex 114.75773047204173 124.46777366721139 82.08286432313528
  endloop
endfacet
facet normal 6.019144676064519e-15 -0.3826834323650842 0.9238795325112892
  outer loop
    vertex 113.6144154720419 124.46777366721139 82.0828643231353
    vertex 114.75773047204173 124.95013557700634 82.28266516814453
    vertex 113.6144154720419 124.95013557700634 82.28266516814455
  endloop
endfacet
facet normal 2.833102524915143e-15 -0.9238795325112908 0.38268343236508007
  outer loop
    vertex 113.6144154720419 123.73572285964252 81.35081351556641
    vertex 114.75773047204173 123.53592201463327 80.86845160577147
    vertex 114.75773047204173 123.73572285964252 81.3508135155664
  endloop
endfacet
facet normal 2.833102524915143e-15 -0.9238795325112908 0.38268343236508007
  outer loop
    vertex 114.75773047204173 123.53592201463327 80.86845160577147
    vertex 113.6144154720419 123.73572285964252 81.35081351556641
    vertex 113.6144154720419 123.53592201463327 80.86845160577147
  endloop
endfacet
facet normal 5.293165513032825e-15 -0.6087614290087418 0.7933533402912192
  outer loop
    vertex 114.75773047204173 124.46777366721139 82.08286432313528
    vertex 113.6144154720419 124.05356010483828 81.7650270779395
    vertex 114.75773047204173 124.05356010483828 81.7650270779395
  endloop
endfacet
facet normal 5.293165513032825e-15 -0.6087614290087418 0.7933533402912192
  outer loop
    vertex 113.6144154720419 124.05356010483828 81.7650270779395
    vertex 114.75773047204173 124.46777366721139 82.08286432313528
    vertex 113.6144154720419 124.46777366721139 82.0828643231353
  endloop
endfacet
facet normal -1.0 -4.440892098501027e-16 -2.317036104766806e-16
  outer loop
    vertex 114.7577304720417 125.4677736672114 78.35081351556643
    vertex 114.7577304720417 154.9590861172437 78.41896186298825
    vertex 114.7577304720417 155.47672420744877 78.35081351556641
  endloop
endfacet
facet normal -1.0 -4.440892098501027e-16 -2.317036104766806e-16
  outer loop
    vertex 114.7577304720417 154.9590861172437 78.41896186298825
    vertex 114.7577304720417 125.4677736672114 78.35081351556643
    vertex 114.7577304720417 125.98541175741643 78.41896186298828
  endloop
endfacet
facet normal -1.0 -4.440892098501027e-16 -2.317036104766806e-16
  outer loop
    vertex 114.7577304720417 154.9590861172437 78.41896186298825
    vertex 114.7577304720417 125.98541175741643 78.41896186298828
    vertex 114.7577304720417 154.47672420744877 78.61876270799752
  endloop
endfacet
facet normal -1.0 -4.440892098501027e-16 -2.317036104766806e-16
  outer loop
    vertex 114.7577304720417 154.47672420744877 78.61876270799752
    vertex 114.7577304720417 125.98541175741643 78.41896186298828
    vertex 114.7577304720417 126.4677736672114 78.61876270799753
  endloop
endfacet
facet normal -1.0 -4.440892098501027e-16 -2.317036104766806e-16
  outer loop
    vertex 114.7577304720417 154.47672420744877 78.61876270799752
    vertex 114.7577304720417 126.4677736672114 78.61876270799753
    vertex 114.7577304720417 154.06251064507566 78.93659995319331
  endloop
endfacet
facet normal -1.0 -4.440892098501027e-16 -2.317036104766806e-16
  outer loop
    vertex 114.7577304720417 154.06251064507566 78.93659995319331
    vertex 114.7577304720417 126.4677736672114 78.61876270799753
    vertex 114.7577304720417 126.88198722958448 78.93659995319332
  endloop
endfacet
facet normal -1.0 -4.440892098501027e-16 -2.317036104766806e-16
  outer loop
    vertex 114.7577304720417 154.06251064507566 78.93659995319331
    vertex 114.7577304720417 126.88198722958448 78.93659995319332
    vertex 114.7577304720417 153.7446733998799 79.3508135155664
  endloop
endfacet
facet normal -1.0 -4.440892098501027e-16 -2.317036104766806e-16
  outer loop
    vertex 114.7577304720417 153.7446733998799 79.3508135155664
    vertex 114.7577304720417 126.88198722958448 78.93659995319332
    vertex 114.75773047204173 127.19982447478027 79.35081351556644
  endloop
endfacet
facet normal -1.0 -4.440892098501027e-16 -2.317036104766806e-16
  outer loop
    vertex 114.7577304720417 153.7446733998799 79.3508135155664
    vertex 114.75773047204173 127.19982447478027 79.35081351556644
    vertex 114.7577304720417 153.54487255487058 79.83317542536136
  endloop
endfacet
facet normal -1.0 -4.440892098501027e-16 -2.317036104766806e-16
  outer loop
    vertex 114.7577304720417 153.54487255487058 79.83317542536136
    vertex 114.75773047204173 127.19982447478027 79.35081351556644
    vertex 114.75773047204173 127.39962531978954 79.83317542536139
  endloop
endfacet
facet normal -1.0 -4.440892098501027e-16 -2.317036104766806e-16
  outer loop
    vertex 114.7577304720417 153.54487255487058 79.83317542536136
    vertex 114.75773047204173 127.39962531978954 79.83317542536139
    vertex 114.7577304720417 153.47672420744877 80.3508135155664
  endloop
endfacet
facet normal -1.0 -4.440892098501027e-16 -2.317036104766806e-16
  outer loop
    vertex 114.7577304720417 153.47672420744877 80.3508135155664
    vertex 114.75773047204173 127.39962531978954 79.83317542536139
    vertex 114.75773047204173 127.4677736672114 80.35081351556644
  endloop
endfacet
facet normal -1.0 -4.440892098501027e-16 -2.317036104766806e-16
  outer loop
    vertex 114.7577304720417 153.47672420744877 80.3508135155664
    vertex 114.75773047204173 127.4677736672114 80.35081351556644
    vertex 114.75773047204173 153.54487255487064 80.86845160577145
  endloop
endfacet
facet normal -1.0 -4.440892098501027e-16 -2.317036104766806e-16
  outer loop
    vertex 114.75773047204173 153.54487255487064 80.86845160577145
    vertex 114.75773047204173 127.4677736672114 80.35081351556644
    vertex 114.75773047204173 127.39962531978954 80.86845160577147
  endloop
endfacet
facet normal -1.0 -4.440892098501027e-16 -2.317036104766806e-16
  outer loop
    vertex 114.75773047204173 153.54487255487064 80.86845160577145
    vertex 114.75773047204173 127.39962531978954 80.86845160577147
    vertex 114.75773047204173 153.7446733998799 81.35081351556639
  endloop
endfacet
facet normal -1.0 -4.440892098501027e-16 -2.317036104766806e-16
  outer loop
    vertex 114.75773047204173 153.7446733998799 81.35081351556639
    vertex 114.75773047204173 127.39962531978954 80.86845160577147
    vertex 114.75773047204173 127.19982447478027 81.35081351556643
  endloop
endfacet
facet normal -1.0 -4.440892098501027e-16 -2.317036104766806e-16
  outer loop
    vertex 114.75773047204173 153.7446733998799 81.35081351556639
    vertex 114.75773047204173 127.19982447478027 81.35081351556643
    vertex 114.75773047204173 154.06251064507566 81.76502707793948
  endloop
endfacet
facet normal -1.0 -4.440892098501027e-16 -2.317036104766806e-16
  outer loop
    vertex 114.75773047204173 154.06251064507566 81.76502707793948
    vertex 114.75773047204173 127.19982447478027 81.35081351556643
    vertex 114.75773047204173 126.88198722958451 81.76502707793951
  endloop
endfacet
facet normal -1.0 -4.440892098501027e-16 -2.317036104766806e-16
  outer loop
    vertex 114.75773047204173 154.06251064507566 81.76502707793948
    vertex 114.75773047204173 126.88198722958451 81.76502707793951
    vertex 114.75773047204173 154.47672420744877 82.08286432313527
  endloop
endfacet
facet normal -1.0 -4.440892098501027e-16 -2.317036104766806e-16
  outer loop
    vertex 114.75773047204173 154.47672420744877 82.08286432313527
    vertex 114.75773047204173 126.88198722958451 81.76502707793951
    vertex 114.75773047204173 126.46777366721139 82.0828643231353
  endloop
endfacet
facet normal -1.0 -4.440892098501027e-16 -2.317036104766806e-16
  outer loop
    vertex 114.75773047204173 154.47672420744877 82.08286432313527
    vertex 114.75773047204173 126.46777366721139 82.0828643231353
    vertex 114.75773047204173 154.9590861172437 82.28266516814453
  endloop
endfacet
facet normal -1.0 -4.440892098501027e-16 -2.317036104766806e-16
  outer loop
    vertex 114.75773047204173 154.9590861172437 82.28266516814453
    vertex 114.75773047204173 126.46777366721139 82.0828643231353
    vertex 114.75773047204173 125.98541175741641 82.28266516814455
  endloop
endfacet
facet normal -1.0 -4.440892098501027e-16 -2.317036104766806e-16
  outer loop
    vertex 114.75773047204173 154.9590861172437 82.28266516814453
    vertex 114.75773047204173 125.98541175741641 82.28266516814455
    vertex 114.75773047204173 155.47672420744877 82.3508135155664
  endloop
endfacet
facet normal -1.0 -4.440892098501027e-16 -2.317036104766806e-16
  outer loop
    vertex 114.75773047204173 155.47672420744877 82.3508135155664
    vertex 114.75773047204173 125.98541175741641 82.28266516814455
    vertex 114.75773047204173 125.46777366721139 82.35081351556641
  endloop
endfacet
facet normal -1.0 -4.440892098501027e-16 -2.317036104766806e-16
  outer loop
    vertex 114.75773047204177 117.96777366721136 30.350813515566422
    vertex 114.75773047204163 130.46777366721136 60.35081351556643
    vertex 114.75773047204159 150.4767242074488 60.35081351556642
  endloop
endfacet
facet normal -1.0 -4.440892098501027e-16 -2.317036104766806e-16
  outer loop
    vertex 114.75773047204163 130.46777366721136 60.35081351556643
    vertex 114.75773047204177 117.96777366721136 30.350813515566422
    vertex 114.75773047204174 117.96777366721136 85.3508135155664
  endloop
endfacet
facet normal -1.0 -4.440892098501027e-16 -2.317036104766806e-16
  outer loop
    vertex 114.75773047204163 130.46777366721136 60.35081351556643
    vertex 114.75773047204174 117.96777366721136 85.3508135155664
    vertex 114.7577304720417 130.4677736672114 70.3508135155663
  endloop
endfacet
facet normal -1.0 -4.440892098501027e-16 -2.317036104766806e-16
  outer loop
    vertex 114.7577304720417 130.4677736672114 70.3508135155663
    vertex 114.75773047204174 117.96777366721136 85.3508135155664
    vertex 114.75773047204173 124.05356010483831 78.93659995319332
  endloop
endfacet
facet normal -1.0 -4.440892098501027e-16 -2.317036104766806e-16
  outer loop
    vertex 114.7577304720417 130.4677736672114 70.3508135155663
    vertex 114.75773047204173 124.05356010483831 78.93659995319332
    vertex 114.7577304720417 124.46777366721142 78.61876270799753
  endloop
endfacet
facet normal -1.0 -4.440892098501027e-16 -2.317036104766806e-16
  outer loop
    vertex 114.7577304720417 130.4677736672114 70.3508135155663
    vertex 114.7577304720417 124.46777366721142 78.61876270799753
    vertex 114.7577304720417 124.95013557700634 78.41896186298828
  endloop
endfacet
facet normal -1.0 -4.440892098501027e-16 -2.317036104766806e-16
  outer loop
    vertex 114.7577304720417 130.4677736672114 70.3508135155663
    vertex 114.7577304720417 124.95013557700634 78.41896186298828
    vertex 114.7577304720417 150.47672420744874 70.35081351556643
  endloop
endfacet
facet normal -1.0 -4.440892098501027e-16 -2.317036104766806e-16
  outer loop
    vertex 114.7577304720417 150.47672420744874 70.35081351556643
    vertex 114.7577304720417 124.95013557700634 78.41896186298828
    vertex 114.7577304720417 125.4677736672114 78.35081351556643
  endloop
endfacet
facet normal -1.0 -4.440892098501027e-16 -2.317036104766806e-16
  outer loop
    vertex 114.7577304720417 150.47672420744874 70.35081351556643
    vertex 114.7577304720417 125.4677736672114 78.35081351556643
    vertex 114.7577304720417 155.47672420744877 78.35081351556641
  endloop
endfacet
facet normal -1.0 -4.440892098501027e-16 -2.317036104766806e-16
  outer loop
    vertex 114.75773047204173 124.05356010483831 78.93659995319332
    vertex 114.75773047204174 117.96777366721136 85.3508135155664
    vertex 114.75773047204173 123.73572285964252 79.35081351556641
  endloop
endfacet
facet normal -1.0 -4.440892098501027e-16 -2.317036104766806e-16
  outer loop
    vertex 114.75773047204173 123.73572285964252 79.35081351556641
    vertex 114.75773047204174 117.96777366721136 85.3508135155664
    vertex 114.75773047204173 123.53592201463327 79.83317542536138
  endloop
endfacet
facet normal -1.0 -4.440892098501027e-16 -2.317036104766806e-16
  outer loop
    vertex 114.75773047204173 123.53592201463327 79.83317542536138
    vertex 114.75773047204174 117.96777366721136 85.3508135155664
    vertex 114.75773047204173 123.46777366721142 80.35081351556641
  endloop
endfacet
facet normal -1.0 -4.440892098501027e-16 -2.317036104766806e-16
  outer loop
    vertex 114.75773047204173 123.46777366721142 80.35081351556641
    vertex 114.75773047204174 117.96777366721136 85.3508135155664
    vertex 114.75773047204173 123.53592201463327 80.86845160577147
  endloop
endfacet
facet normal -1.0 -4.440892098501027e-16 -2.317036104766806e-16
  outer loop
    vertex 114.75773047204173 123.53592201463327 80.86845160577147
    vertex 114.75773047204174 117.96777366721136 85.3508135155664
    vertex 114.75773047204173 123.73572285964252 81.3508135155664
  endloop
endfacet
facet normal -1.0 -4.440892098501027e-16 -2.317036104766806e-16
  outer loop
    vertex 114.75773047204173 123.73572285964252 81.3508135155664
    vertex 114.75773047204174 117.96777366721136 85.3508135155664
    vertex 114.75773047204173 124.05356010483828 81.7650270779395
  endloop
endfacet
facet normal -1.0 -4.440892098501027e-16 -2.317036104766806e-16
  outer loop
    vertex 114.75773047204173 124.05356010483828 81.7650270779395
    vertex 114.75773047204174 117.96777366721136 85.3508135155664
    vertex 114.75773047204173 124.46777366721139 82.08286432313528
  endloop
endfacet
facet normal -1.0 -4.440892098501027e-16 -2.317036104766806e-16
  outer loop
    vertex 114.75773047204173 124.46777366721139 82.08286432313528
    vertex 114.75773047204174 117.96777366721136 85.3508135155664
    vertex 114.75773047204173 124.95013557700634 82.28266516814453
  endloop
endfacet
facet normal -1.0 -4.440892098501027e-16 -2.317036104766806e-16
  outer loop
    vertex 114.75773047204173 124.95013557700634 82.28266516814453
    vertex 114.75773047204174 117.96777366721136 85.3508135155664
    vertex 114.75773047204173 125.46777366721139 82.35081351556641
  endloop
endfacet
facet normal -1.0 -4.440892098501027e-16 -2.317036104766806e-16
  outer loop
    vertex 114.75773047204173 125.46777366721139 82.35081351556641
    vertex 114.75773047204174 117.96777366721136 85.3508135155664
    vertex 114.75773047204174 162.9767242074487 85.3508135155664
  endloop
endfacet
facet normal -1.0 -4.440892098501027e-16 -2.317036104766806e-16
  outer loop
    vertex 114.75773047204174 162.9767242074487 30.35081351556641
    vertex 114.75773047204159 150.4767242074488 60.35081351556642
    vertex 114.75773047204174 162.9767242074487 85.3508135155664
  endloop
endfacet
facet normal -1.0 -4.440892098501027e-16 -2.317036104766806e-16
  outer loop
    vertex 114.75773047204159 150.4767242074488 60.35081351556642
    vertex 114.75773047204174 162.9767242074487 30.35081351556641
    vertex 114.75773047204177 117.96777366721136 30.350813515566422
  endloop
endfacet
facet normal -1.0 -4.440892098501027e-16 -2.317036104766806e-16
  outer loop
    vertex 114.75773047204174 162.9767242074487 85.3508135155664
    vertex 114.75773047204159 150.4767242074488 60.35081351556642
    vertex 114.7577304720417 150.47672420744874 70.35081351556643
  endloop
endfacet
facet normal -1.0 -4.440892098501027e-16 -2.317036104766806e-16
  outer loop
    vertex 114.75773047204174 162.9767242074487 85.3508135155664
    vertex 114.7577304720417 150.47672420744874 70.35081351556643
    vertex 114.7577304720417 156.89093776982185 78.93659995319332
  endloop
endfacet
facet normal -1.0 -4.440892098501027e-16 -2.317036104766806e-16
  outer loop
    vertex 114.7577304720417 156.89093776982185 78.93659995319332
    vertex 114.7577304720417 150.47672420744874 70.35081351556643
    vertex 114.7577304720417 156.47672420744877 78.61876270799753
  endloop
endfacet
facet normal -1.0 -4.440892098501027e-16 -2.317036104766806e-16
  outer loop
    vertex 114.7577304720417 156.47672420744877 78.61876270799753
    vertex 114.7577304720417 150.47672420744874 70.35081351556643
    vertex 114.7577304720417 155.99436229765382 78.41896186298827
  endloop
endfacet
facet normal -1.0 -4.440892098501027e-16 -2.317036104766806e-16
  outer loop
    vertex 114.7577304720417 155.99436229765382 78.41896186298827
    vertex 114.7577304720417 150.47672420744874 70.35081351556643
    vertex 114.7577304720417 155.47672420744877 78.35081351556641
  endloop
endfacet
facet normal -1.0 -4.440892098501027e-16 -2.317036104766806e-16
  outer loop
    vertex 114.75773047204174 162.9767242074487 85.3508135155664
    vertex 114.7577304720417 156.89093776982185 78.93659995319332
    vertex 114.7577304720417 157.20877501501764 79.35081351556643
  endloop
endfacet
facet normal -1.0 -4.440892098501027e-16 -2.317036104766806e-16
  outer loop
    vertex 114.75773047204174 162.9767242074487 85.3508135155664
    vertex 114.7577304720417 157.20877501501764 79.35081351556643
    vertex 114.7577304720417 157.40857586002687 79.83317542536138
  endloop
endfacet
facet normal -1.0 -4.440892098501027e-16 -2.317036104766806e-16
  outer loop
    vertex 114.75773047204174 162.9767242074487 85.3508135155664
    vertex 114.7577304720417 157.40857586002687 79.83317542536138
    vertex 114.7577304720417 157.47672420744874 80.35081351556643
  endloop
endfacet
facet normal -1.0 -4.440892098501027e-16 -2.317036104766806e-16
  outer loop
    vertex 114.75773047204174 162.9767242074487 85.3508135155664
    vertex 114.7577304720417 157.47672420744874 80.35081351556643
    vertex 114.7577304720417 157.40857586002693 80.86845160577145
  endloop
endfacet
facet normal -1.0 -4.440892098501027e-16 -2.317036104766806e-16
  outer loop
    vertex 114.75773047204174 162.9767242074487 85.3508135155664
    vertex 114.7577304720417 157.40857586002693 80.86845160577145
    vertex 114.75773047204173 157.20877501501764 81.35081351556641
  endloop
endfacet
facet normal -1.0 -4.440892098501027e-16 -2.317036104766806e-16
  outer loop
    vertex 114.75773047204174 162.9767242074487 85.3508135155664
    vertex 114.75773047204173 157.20877501501764 81.35081351556641
    vertex 114.75773047204173 156.89093776982185 81.7650270779395
  endloop
endfacet
facet normal -1.0 -4.440892098501027e-16 -2.317036104766806e-16
  outer loop
    vertex 114.75773047204174 162.9767242074487 85.3508135155664
    vertex 114.75773047204173 156.89093776982185 81.7650270779395
    vertex 114.75773047204173 156.47672420744877 82.08286432313528
  endloop
endfacet
facet normal -1.0 -4.440892098501027e-16 -2.317036104766806e-16
  outer loop
    vertex 114.75773047204174 162.9767242074487 85.3508135155664
    vertex 114.75773047204173 156.47672420744877 82.08286432313528
    vertex 114.75773047204173 155.99436229765382 82.28266516814453
  endloop
endfacet
facet normal -1.0 -4.440892098501027e-16 -2.317036104766806e-16
  outer loop
    vertex 114.75773047204174 162.9767242074487 85.3508135155664
    vertex 114.75773047204173 155.99436229765382 82.28266516814453
    vertex 114.75773047204173 155.47672420744877 82.3508135155664
  endloop
endfacet
facet normal -1.0 -4.440892098501027e-16 -2.317036104766806e-16
  outer loop
    vertex 114.75773047204174 162.9767242074487 85.3508135155664
    vertex 114.75773047204173 155.47672420744877 82.3508135155664
    vertex 114.75773047204173 125.46777366721139 82.35081351556641
  endloop
endfacet
facet normal 1.0 4.440892098501011e-16 2.317036104766806e-16
  outer loop
    vertex 118.75773047204174 162.9767242074487 30.350813515566422
    vertex 118.75773047204167 150.47672420744877 60.35081351556642
    vertex 118.75773047204176 117.96777366721136 30.35081351556641
  endloop
endfacet
facet normal 1.0 4.440892098501011e-16 2.317036104766806e-16
  outer loop
    vertex 118.75773047204167 150.47672420744877 60.35081351556642
    vertex 118.75773047204174 162.9767242074487 30.350813515566422
    vertex 118.75773047204174 162.9767242074487 85.3508135155664
  endloop
endfacet
facet normal 1.0 4.440892098501011e-16 2.317036104766806e-16
  outer loop
    vertex 118.75773047204167 150.47672420744877 60.35081351556642
    vertex 118.75773047204174 162.9767242074487 85.3508135155664
    vertex 118.75773047204174 150.4767242074487 70.35081351556643
  endloop
endfacet
facet normal 1.0 4.440892098501011e-16 2.317036104766806e-16
  outer loop
    vertex 118.75773047204174 150.4767242074487 70.35081351556643
    vertex 118.75773047204174 162.9767242074487 85.3508135155664
    vertex 118.75773047204174 130.46777366721133 70.35081351556629
  endloop
endfacet
facet normal 1.0 4.440892098501011e-16 2.317036104766806e-16
  outer loop
    vertex 118.75773047204176 117.96777366721136 30.35081351556641
    vertex 118.75773047204167 130.46777366721133 60.35081351556642
    vertex 118.75773047204174 117.96777366721138 85.3508135155664
  endloop
endfacet
facet normal 1.0 4.440892098501011e-16 2.317036104766806e-16
  outer loop
    vertex 118.75773047204167 130.46777366721133 60.35081351556642
    vertex 118.75773047204176 117.96777366721136 30.35081351556641
    vertex 118.75773047204167 150.47672420744877 60.35081351556642
  endloop
endfacet
facet normal 1.0 4.440892098501011e-16 2.317036104766806e-16
  outer loop
    vertex 118.75773047204174 117.96777366721138 85.3508135155664
    vertex 118.75773047204167 130.46777366721133 60.35081351556642
    vertex 118.75773047204174 130.46777366721133 70.35081351556629
  endloop
endfacet
facet normal 1.0 4.440892098501011e-16 2.317036104766806e-16
  outer loop
    vertex 118.75773047204174 117.96777366721138 85.3508135155664
    vertex 118.75773047204174 130.46777366721133 70.35081351556629
    vertex 118.75773047204174 162.9767242074487 85.3508135155664
  endloop
endfacet
facet normal -4.440892098500572e-16 1.0 -2.3170361047667664e-16
  outer loop
    vertex 114.75773047204174 162.9767242074487 30.35081351556641
    vertex 118.75773047204174 162.9767242074487 85.3508135155664
    vertex 118.75773047204174 162.9767242074487 30.350813515566422
  endloop
endfacet
facet normal -4.440892098500572e-16 1.0 -2.3170361047667664e-16
  outer loop
    vertex 118.75773047204174 162.9767242074487 85.3508135155664
    vertex 114.75773047204174 162.9767242074487 30.35081351556641
    vertex 114.75773047204174 162.9767242074487 85.3508135155664
  endloop
endfacet
facet normal 6.911945110844408e-16 1.8483236435849501e-16 1.0
  outer loop
    vertex 118.75773047204174 162.9767242074487 85.3508135155664
    vertex 114.75773047204174 117.96777366721136 85.3508135155664
    vertex 118.75773047204174 117.96777366721138 85.3508135155664
  endloop
endfacet
facet normal 6.911945110844408e-16 1.8483236435849501e-16 1.0
  outer loop
    vertex 114.75773047204174 117.96777366721136 85.3508135155664
    vertex 118.75773047204174 162.9767242074487 85.3508135155664
    vertex 114.75773047204174 162.9767242074487 85.3508135155664
  endloop
endfacet
facet normal 4.440892098500755e-16 -1.0 2.3170361047667427e-16
  outer loop
    vertex 118.75773047204174 117.96777366721138 85.3508135155664
    vertex 114.75773047204177 117.96777366721136 30.350813515566422
    vertex 118.75773047204176 117.96777366721136 30.35081351556641
  endloop
endfacet
facet normal 4.440892098500755e-16 -1.0 2.3170361047667427e-16
  outer loop
    vertex 114.75773047204177 117.96777366721136 30.350813515566422
    vertex 118.75773047204174 117.96777366721138 85.3508135155664
    vertex 114.75773047204174 117.96777366721136 85.3508135155664
  endloop
endfacet
facet normal -6.911945110844408e-16 -5.95254443481339e-17 -1.0
  outer loop
    vertex 114.75773047204174 162.9767242074487 30.35081351556641
    vertex 118.75773047204176 117.96777366721136 30.35081351556641
    vertex 114.75773047204177 117.96777366721136 30.350813515566422
  endloop
endfacet
facet normal -6.911945110844408e-16 -5.95254443481339e-17 -1.0
  outer loop
    vertex 118.75773047204176 117.96777366721136 30.35081351556641
    vertex 114.75773047204174 162.9767242074487 30.35081351556641
    vertex 118.75773047204174 162.9767242074487 30.350813515566422
  endloop
endfacet
facet normal -1.266667927022947e-15 0.9914448613738115 -0.13052619222004452
  outer loop
    vertex 113.6144154720419 127.39962531978954 79.8331754253614
    vertex 114.75773047204173 127.4677736672114 80.35081351556644
    vertex 114.75773047204173 127.39962531978954 79.83317542536139
  endloop
endfacet
facet normal -1.266667927022947e-15 0.9914448613738115 -0.13052619222004452
  outer loop
    vertex 114.75773047204173 127.4677736672114 80.35081351556644
    vertex 113.6144154720419 127.39962531978954 79.8331754253614
    vertex 113.6144154720419 127.4677736672114 80.35081351556644
  endloop
endfacet
facet normal -2.833102524915143e-15 0.9238795325112908 -0.38268343236508007
  outer loop
    vertex 113.6144154720419 127.19982447478027 79.35081351556646
    vertex 114.75773047204173 127.39962531978954 79.83317542536139
    vertex 114.75773047204173 127.19982447478027 79.35081351556644
  endloop
endfacet
facet normal -2.833102524915143e-15 0.9238795325112908 -0.38268343236508007
  outer loop
    vertex 114.75773047204173 127.39962531978954 79.83317542536139
    vertex 113.6144154720419 127.19982447478027 79.35081351556646
    vertex 113.6144154720419 127.39962531978954 79.8331754253614
  endloop
endfacet
facet normal -4.2064658676577385e-15 0.7933533402912346 -0.6087614290087213
  outer loop
    vertex 113.61441547204187 126.88198722958448 78.93659995319335
    vertex 114.75773047204173 127.19982447478027 79.35081351556644
    vertex 114.7577304720417 126.88198722958448 78.93659995319332
  endloop
endfacet
facet normal -4.2064658676577385e-15 0.7933533402912346 -0.6087614290087213
  outer loop
    vertex 114.75773047204173 127.19982447478027 79.35081351556644
    vertex 113.61441547204187 126.88198722958448 78.93659995319335
    vertex 113.6144154720419 127.19982447478027 79.35081351556646
  endloop
endfacet
facet normal -5.293165513032825e-15 0.6087614290087418 -0.7933533402912192
  outer loop
    vertex 113.61441547204187 126.88198722958448 78.93659995319335
    vertex 114.7577304720417 126.4677736672114 78.61876270799753
    vertex 113.61441547204187 126.4677736672114 78.61876270799755
  endloop
endfacet
facet normal -5.293165513032825e-15 0.6087614290087418 -0.7933533402912192
  outer loop
    vertex 114.7577304720417 126.4677736672114 78.61876270799753
    vertex 113.61441547204187 126.88198722958448 78.93659995319335
    vertex 114.7577304720417 126.88198722958448 78.93659995319332
  endloop
endfacet
facet normal -6.019144676064502e-15 0.3826834323650917 -0.923879532511286
  outer loop
    vertex 113.61441547204187 126.4677736672114 78.61876270799755
    vertex 114.7577304720417 125.98541175741643 78.41896186298828
    vertex 113.61441547204187 125.98541175741643 78.4189618629883
  endloop
endfacet
facet normal -6.019144676064502e-15 0.3826834323650917 -0.923879532511286
  outer loop
    vertex 114.7577304720417 125.98541175741643 78.41896186298828
    vertex 113.61441547204187 126.4677736672114 78.61876270799755
    vertex 114.7577304720417 126.4677736672114 78.61876270799753
  endloop
endfacet
facet normal -6.334929076529199e-15 0.1305261922200358 -0.9914448613738126
  outer loop
    vertex 113.61441547204187 125.98541175741643 78.4189618629883
    vertex 114.7577304720417 125.4677736672114 78.35081351556643
    vertex 113.61441547204187 125.4677736672114 78.35081351556643
  endloop
endfacet
facet normal -6.334929076529199e-15 0.1305261922200358 -0.9914448613738126
  outer loop
    vertex 114.7577304720417 125.4677736672114 78.35081351556643
    vertex 113.61441547204187 125.98541175741643 78.4189618629883
    vertex 114.7577304720417 125.98541175741643 78.41896186298828
  endloop
endfacet
facet normal -6.218998529393738e-15 -0.13052619222002326 -0.9914448613738142
  outer loop
    vertex 113.61441547204187 125.4677736672114 78.35081351556643
    vertex 114.7577304720417 124.95013557700634 78.41896186298828
    vertex 113.61441547204187 124.95013557700634 78.41896186298828
  endloop
endfacet
facet normal -6.218998529393738e-15 -0.13052619222002326 -0.9914448613738142
  outer loop
    vertex 114.7577304720417 124.95013557700634 78.41896186298828
    vertex 113.61441547204187 125.4677736672114 78.35081351556643
    vertex 114.7577304720417 125.4677736672114 78.35081351556643
  endloop
endfacet
facet normal -5.679253509861061e-15 -0.38268343236508007 -0.9238795325112908
  outer loop
    vertex 113.61441547204187 124.95013557700634 78.41896186298828
    vertex 114.7577304720417 124.46777366721142 78.61876270799753
    vertex 113.61441547204187 124.46777366721142 78.61876270799753
  endloop
endfacet
facet normal -5.679253509861061e-15 -0.38268343236508007 -0.9238795325112908
  outer loop
    vertex 114.7577304720417 124.46777366721142 78.61876270799753
    vertex 113.61441547204187 124.95013557700634 78.41896186298828
    vertex 114.7577304720417 124.95013557700634 78.41896186298828
  endloop
endfacet
facet normal -4.752476749041457e-15 -0.6087614290087316 -0.7933533402912267
  outer loop
    vertex 113.61441547204187 124.46777366721142 78.61876270799753
    vertex 114.75773047204173 124.05356010483831 78.93659995319332
    vertex 113.6144154720419 124.05356010483831 78.93659995319332
  endloop
endfacet
facet normal -4.752476749041457e-15 -0.6087614290087316 -0.7933533402912267
  outer loop
    vertex 114.75773047204173 124.05356010483831 78.93659995319332
    vertex 113.61441547204187 124.46777366721142 78.61876270799753
    vertex 114.7577304720417 124.46777366721142 78.61876270799753
  endloop
endfacet
facet normal -1.0 -4.44089209850101e-16 6.331127476180246e-15
  outer loop
    vertex 113.61441547204191 154.9590861172437 78.41896186298827
    vertex 113.61441547204191 155.99436229765382 78.41896186298828
    vertex 113.61441547204191 155.47672420744877 78.35081351556643
  endloop
endfacet
facet normal -1.0 -4.44089209850101e-16 6.331127476180246e-15
  outer loop
    vertex 113.61441547204191 155.99436229765382 78.41896186298828
    vertex 113.61441547204191 154.9590861172437 78.41896186298827
    vertex 113.61441547204191 154.47672420744877 78.61876270799753
  endloop
endfacet
facet normal -1.0 -4.44089209850101e-16 6.331127476180246e-15
  outer loop
    vertex 113.61441547204191 155.99436229765382 78.41896186298828
    vertex 113.61441547204191 154.47672420744877 78.61876270799753
    vertex 113.61441547204191 156.47672420744877 78.61876270799753
  endloop
endfacet
facet normal -1.0 -4.44089209850101e-16 6.331127476180246e-15
  outer loop
    vertex 113.61441547204191 156.47672420744877 78.61876270799753
    vertex 113.61441547204191 154.47672420744877 78.61876270799753
    vertex 113.61441547204191 154.06251064507566 78.93659995319331
  endloop
endfacet
facet normal -1.0 -4.44089209850101e-16 6.331127476180246e-15
  outer loop
    vertex 113.61441547204191 156.47672420744877 78.61876270799753
    vertex 113.61441547204191 154.06251064507566 78.93659995319331
    vertex 113.61441547204191 156.89093776982185 78.93659995319332
  endloop
endfacet
facet normal -1.0 -4.44089209850101e-16 6.331127476180246e-15
  outer loop
    vertex 113.61441547204191 156.89093776982185 78.93659995319332
    vertex 113.61441547204191 154.06251064507566 78.93659995319331
    vertex 113.61441547204191 153.7446733998799 79.3508135155664
  endloop
endfacet
facet normal -1.0 -4.44089209850101e-16 6.331127476180246e-15
  outer loop
    vertex 113.61441547204191 156.89093776982185 78.93659995319332
    vertex 113.61441547204191 153.7446733998799 79.3508135155664
    vertex 113.61441547204191 157.20877501501764 79.35081351556643
  endloop
endfacet
facet normal -1.0 -4.44089209850101e-16 6.331127476180246e-15
  outer loop
    vertex 113.61441547204191 157.20877501501764 79.35081351556643
    vertex 113.61441547204191 153.7446733998799 79.3508135155664
    vertex 113.61441547204191 153.54487255487058 79.83317542536136
  endloop
endfacet
facet normal -1.0 -4.44089209850101e-16 6.331127476180246e-15
  outer loop
    vertex 113.61441547204191 157.20877501501764 79.35081351556643
    vertex 113.61441547204191 153.54487255487058 79.83317542536136
    vertex 113.61441547204191 157.40857586002687 79.83317542536138
  endloop
endfacet
facet normal -1.0 -4.44089209850101e-16 6.331127476180246e-15
  outer loop
    vertex 113.61441547204191 157.40857586002687 79.83317542536138
    vertex 113.61441547204191 153.54487255487058 79.83317542536136
    vertex 113.61441547204191 153.47672420744877 80.3508135155664
  endloop
endfacet
facet normal -1.0 -4.44089209850101e-16 6.331127476180246e-15
  outer loop
    vertex 113.61441547204191 157.40857586002687 79.83317542536138
    vertex 113.61441547204191 153.47672420744877 80.3508135155664
    vertex 113.61441547204191 157.47672420744874 80.35081351556643
  endloop
endfacet
facet normal -1.0 -4.44089209850101e-16 6.331127476180246e-15
  outer loop
    vertex 113.61441547204191 157.47672420744874 80.35081351556643
    vertex 113.61441547204191 153.47672420744877 80.3508135155664
    vertex 113.61441547204194 153.54487255487064 80.86845160577145
  endloop
endfacet
facet normal -1.0 -4.44089209850101e-16 6.331127476180246e-15
  outer loop
    vertex 113.61441547204191 157.47672420744874 80.35081351556643
    vertex 113.61441547204194 153.54487255487064 80.86845160577145
    vertex 113.61441547204191 157.40857586002693 80.86845160577145
  endloop
endfacet
facet normal -1.0 -4.44089209850101e-16 6.331127476180246e-15
  outer loop
    vertex 113.61441547204191 157.40857586002693 80.86845160577145
    vertex 113.61441547204194 153.54487255487064 80.86845160577145
    vertex 113.61441547204194 157.20877501501764 81.35081351556643
  endloop
endfacet
facet normal -1.0 -4.44089209850101e-16 6.331127476180246e-15
  outer loop
    vertex 113.61441547204194 157.20877501501764 81.35081351556643
    vertex 113.61441547204194 153.54487255487064 80.86845160577145
    vertex 113.61441547204194 153.7446733998799 81.3508135155664
  endloop
endfacet
facet normal -1.0 -4.44089209850101e-16 6.331127476180246e-15
  outer loop
    vertex 113.61441547204194 157.20877501501764 81.35081351556643
    vertex 113.61441547204194 153.7446733998799 81.3508135155664
    vertex 113.61441547204194 154.06251064507566 81.76502707793948
  endloop
endfacet
facet normal -1.0 -4.44089209850101e-16 6.331127476180246e-15
  outer loop
    vertex 113.61441547204194 157.20877501501764 81.35081351556643
    vertex 113.61441547204194 154.06251064507566 81.76502707793948
    vertex 113.61441547204194 156.89093776982185 81.76502707793951
  endloop
endfacet
facet normal -1.0 -4.44089209850101e-16 6.331127476180246e-15
  outer loop
    vertex 113.61441547204194 156.89093776982185 81.76502707793951
    vertex 113.61441547204194 154.06251064507566 81.76502707793948
    vertex 113.61441547204194 154.47672420744877 82.08286432313527
  endloop
endfacet
facet normal -1.0 -4.44089209850101e-16 6.331127476180246e-15
  outer loop
    vertex 113.61441547204194 156.89093776982185 81.76502707793951
    vertex 113.61441547204194 154.47672420744877 82.08286432313527
    vertex 113.61441547204194 156.47672420744877 82.0828643231353
  endloop
endfacet
facet normal -1.0 -4.44089209850101e-16 6.331127476180246e-15
  outer loop
    vertex 113.61441547204194 156.47672420744877 82.0828643231353
    vertex 113.61441547204194 154.47672420744877 82.08286432313527
    vertex 113.61441547204194 154.9590861172437 82.28266516814453
  endloop
endfacet
facet normal -1.0 -4.44089209850101e-16 6.331127476180246e-15
  outer loop
    vertex 113.61441547204194 156.47672420744877 82.0828643231353
    vertex 113.61441547204194 154.9590861172437 82.28266516814453
    vertex 113.61441547204194 155.99436229765382 82.28266516814453
  endloop
endfacet
facet normal -1.0 -4.44089209850101e-16 6.331127476180246e-15
  outer loop
    vertex 113.61441547204194 155.99436229765382 82.28266516814453
    vertex 113.61441547204194 154.9590861172437 82.28266516814453
    vertex 113.61441547204194 155.47672420744877 82.35081351556641
  endloop
endfacet
facet normal -3.860879968280136e-16 -0.9914448613738126 -0.13052619222003578
  outer loop
    vertex 113.61441547204191 153.47672420744877 80.3508135155664
    vertex 114.7577304720417 153.54487255487058 79.83317542536136
    vertex 114.7577304720417 153.47672420744877 80.3508135155664
  endloop
endfacet
facet normal -3.860879968280136e-16 -0.9914448613738126 -0.13052619222003578
  outer loop
    vertex 114.7577304720417 153.54487255487058 79.83317542536136
    vertex 113.61441547204191 153.47672420744877 80.3508135155664
    vertex 113.61441547204191 153.54487255487058 79.83317542536136
  endloop
endfacet
facet normal 1.2666679270230802e-15 -0.9914448613738087 0.13052619222006576
  outer loop
    vertex 113.61441547204194 153.54487255487064 80.86845160577145
    vertex 114.7577304720417 153.47672420744877 80.3508135155664
    vertex 114.75773047204173 153.54487255487064 80.86845160577145
  endloop
endfacet
facet normal 1.2666679270230802e-15 -0.9914448613738087 0.13052619222006576
  outer loop
    vertex 114.7577304720417 153.47672420744877 80.3508135155664
    vertex 113.61441547204194 153.54487255487064 80.86845160577145
    vertex 113.61441547204191 153.47672420744877 80.3508135155664
  endloop
endfacet
facet normal 2.833102524915143e-15 -0.9238795325112908 0.38268343236508007
  outer loop
    vertex 113.61441547204194 153.7446733998799 81.3508135155664
    vertex 114.75773047204173 153.54487255487064 80.86845160577145
    vertex 114.75773047204173 153.7446733998799 81.35081351556639
  endloop
endfacet
facet normal 2.833102524915143e-15 -0.9238795325112908 0.38268343236508007
  outer loop
    vertex 114.75773047204173 153.54487255487064 80.86845160577145
    vertex 113.61441547204194 153.7446733998799 81.3508135155664
    vertex 113.61441547204194 153.54487255487064 80.86845160577145
  endloop
endfacet
facet normal 4.2064658676577e-15 -0.7933533402912396 0.6087614290087149
  outer loop
    vertex 113.61441547204194 154.06251064507566 81.76502707793948
    vertex 114.75773047204173 153.7446733998799 81.35081351556639
    vertex 114.75773047204173 154.06251064507566 81.76502707793948
  endloop
endfacet
facet normal 4.2064658676577e-15 -0.7933533402912396 0.6087614290087149
  outer loop
    vertex 114.75773047204173 153.7446733998799 81.35081351556639
    vertex 113.61441547204194 154.06251064507566 81.76502707793948
    vertex 113.61441547204194 153.7446733998799 81.3508135155664
  endloop
endfacet
facet normal 5.2931655130328704e-15 -0.6087614290087313 0.7933533402912271
  outer loop
    vertex 114.75773047204173 154.47672420744877 82.08286432313527
    vertex 113.61441547204194 154.06251064507566 81.76502707793948
    vertex 114.75773047204173 154.06251064507566 81.76502707793948
  endloop
endfacet
facet normal 5.2931655130328704e-15 -0.6087614290087313 0.7933533402912271
  outer loop
    vertex 113.61441547204194 154.06251064507566 81.76502707793948
    vertex 114.75773047204173 154.47672420744877 82.08286432313527
    vertex 113.61441547204194 154.47672420744877 82.08286432313527
  endloop
endfacet
facet normal 6.019144676064502e-15 -0.3826834323650918 0.923879532511286
  outer loop
    vertex 114.75773047204173 154.9590861172437 82.28266516814453
    vertex 113.61441547204194 154.47672420744877 82.08286432313527
    vertex 114.75773047204173 154.47672420744877 82.08286432313527
  endloop
endfacet
facet normal 6.019144676064502e-15 -0.3826834323650918 0.923879532511286
  outer loop
    vertex 113.61441547204194 154.47672420744877 82.08286432313527
    vertex 114.75773047204173 154.9590861172437 82.28266516814453
    vertex 113.61441547204194 154.9590861172437 82.28266516814453
  endloop
endfacet
facet normal 5.679253509861061e-15 0.3826834323650801 0.9238795325112908
  outer loop
    vertex 114.75773047204173 156.47672420744877 82.08286432313528
    vertex 113.61441547204194 155.99436229765382 82.28266516814453
    vertex 114.75773047204173 155.99436229765382 82.28266516814453
  endloop
endfacet
facet normal 5.679253509861061e-15 0.3826834323650801 0.9238795325112908
  outer loop
    vertex 113.61441547204194 155.99436229765382 82.28266516814453
    vertex 114.75773047204173 156.47672420744877 82.08286432313528
    vertex 113.61441547204194 156.47672420744877 82.0828643231353
  endloop
endfacet
facet normal -1.0 -4.44089209850101e-16 6.331127476180246e-15
  outer loop
    vertex 113.61441547204187 124.95013557700634 78.41896186298828
    vertex 113.61441547204187 125.98541175741643 78.4189618629883
    vertex 113.61441547204187 125.4677736672114 78.35081351556643
  endloop
endfacet
facet normal -1.0 -4.44089209850101e-16 6.331127476180246e-15
  outer loop
    vertex 113.61441547204187 125.98541175741643 78.4189618629883
    vertex 113.61441547204187 124.95013557700634 78.41896186298828
    vertex 113.61441547204187 124.46777366721142 78.61876270799753
  endloop
endfacet
facet normal -1.0 -4.44089209850101e-16 6.331127476180246e-15
  outer loop
    vertex 113.61441547204187 125.98541175741643 78.4189618629883
    vertex 113.61441547204187 124.46777366721142 78.61876270799753
    vertex 113.61441547204187 126.4677736672114 78.61876270799755
  endloop
endfacet
facet normal -1.0 -4.44089209850101e-16 6.331127476180246e-15
  outer loop
    vertex 113.61441547204187 126.4677736672114 78.61876270799755
    vertex 113.61441547204187 124.46777366721142 78.61876270799753
    vertex 113.6144154720419 124.05356010483831 78.93659995319332
  endloop
endfacet
facet normal -1.0 -4.44089209850101e-16 6.331127476180246e-15
  outer loop
    vertex 113.61441547204187 126.4677736672114 78.61876270799755
    vertex 113.6144154720419 124.05356010483831 78.93659995319332
    vertex 113.61441547204187 126.88198722958448 78.93659995319335
  endloop
endfacet
facet normal -1.0 -4.44089209850101e-16 6.331127476180246e-15
  outer loop
    vertex 113.61441547204187 126.88198722958448 78.93659995319335
    vertex 113.6144154720419 124.05356010483831 78.93659995319332
    vertex 113.6144154720419 123.73572285964252 79.35081351556643
  endloop
endfacet
facet normal -1.0 -4.44089209850101e-16 6.331127476180246e-15
  outer loop
    vertex 113.61441547204187 126.88198722958448 78.93659995319335
    vertex 113.6144154720419 123.73572285964252 79.35081351556643
    vertex 113.6144154720419 127.19982447478027 79.35081351556646
  endloop
endfacet
facet normal -1.0 -4.44089209850101e-16 6.331127476180246e-15
  outer loop
    vertex 113.6144154720419 127.19982447478027 79.35081351556646
    vertex 113.6144154720419 123.73572285964252 79.35081351556643
    vertex 113.6144154720419 123.53592201463327 79.83317542536138
  endloop
endfacet
facet normal -1.0 -4.44089209850101e-16 6.331127476180246e-15
  outer loop
    vertex 113.6144154720419 127.19982447478027 79.35081351556646
    vertex 113.6144154720419 123.53592201463327 79.83317542536138
    vertex 113.6144154720419 127.39962531978954 79.8331754253614
  endloop
endfacet
facet normal -1.0 -4.44089209850101e-16 6.331127476180246e-15
  outer loop
    vertex 113.6144154720419 127.39962531978954 79.8331754253614
    vertex 113.6144154720419 123.53592201463327 79.83317542536138
    vertex 113.6144154720419 123.46777366721142 80.35081351556643
  endloop
endfacet
facet normal -1.0 -4.44089209850101e-16 6.331127476180246e-15
  outer loop
    vertex 113.6144154720419 127.39962531978954 79.8331754253614
    vertex 113.6144154720419 123.46777366721142 80.35081351556643
    vertex 113.6144154720419 127.4677736672114 80.35081351556644
  endloop
endfacet
facet normal -1.0 -4.44089209850101e-16 6.331127476180246e-15
  outer loop
    vertex 113.6144154720419 127.4677736672114 80.35081351556644
    vertex 113.6144154720419 123.46777366721142 80.35081351556643
    vertex 113.6144154720419 123.53592201463327 80.86845160577147
  endloop
endfacet
facet normal -1.0 -4.44089209850101e-16 6.331127476180246e-15
  outer loop
    vertex 113.6144154720419 127.4677736672114 80.35081351556644
    vertex 113.6144154720419 123.53592201463327 80.86845160577147
    vertex 113.6144154720419 127.39962531978954 80.86845160577147
  endloop
endfacet
facet normal -1.0 -4.44089209850101e-16 6.331127476180246e-15
  outer loop
    vertex 113.6144154720419 127.39962531978954 80.86845160577147
    vertex 113.6144154720419 123.53592201463327 80.86845160577147
    vertex 113.6144154720419 127.19982447478027 81.35081351556644
  endloop
endfacet
facet normal -1.0 -4.44089209850101e-16 6.331127476180246e-15
  outer loop
    vertex 113.6144154720419 127.19982447478027 81.35081351556644
    vertex 113.6144154720419 123.53592201463327 80.86845160577147
    vertex 113.6144154720419 123.73572285964252 81.35081351556641
  endloop
endfacet
facet normal -1.0 -4.44089209850101e-16 6.331127476180246e-15
  outer loop
    vertex 113.6144154720419 127.19982447478027 81.35081351556644
    vertex 113.6144154720419 123.73572285964252 81.35081351556641
    vertex 113.6144154720419 124.05356010483828 81.7650270779395
  endloop
endfacet
facet normal -1.0 -4.44089209850101e-16 6.331127476180246e-15
  outer loop
    vertex 113.6144154720419 127.19982447478027 81.35081351556644
    vertex 113.6144154720419 124.05356010483828 81.7650270779395
    vertex 113.6144154720419 126.88198722958448 81.76502707793952
  endloop
endfacet
facet normal -1.0 -4.44089209850101e-16 6.331127476180246e-15
  outer loop
    vertex 113.6144154720419 126.88198722958448 81.76502707793952
    vertex 113.6144154720419 124.05356010483828 81.7650270779395
    vertex 113.6144154720419 124.46777366721139 82.0828643231353
  endloop
endfacet
facet normal -1.0 -4.44089209850101e-16 6.331127476180246e-15
  outer loop
    vertex 113.6144154720419 126.88198722958448 81.76502707793952
    vertex 113.6144154720419 124.46777366721139 82.0828643231353
    vertex 113.6144154720419 126.46777366721139 82.08286432313531
  endloop
endfacet
facet normal -1.0 -4.44089209850101e-16 6.331127476180246e-15
  outer loop
    vertex 113.6144154720419 126.46777366721139 82.08286432313531
    vertex 113.6144154720419 124.46777366721139 82.0828643231353
    vertex 113.6144154720419 124.95013557700634 82.28266516814455
  endloop
endfacet
facet normal -1.0 -4.44089209850101e-16 6.331127476180246e-15
  outer loop
    vertex 113.6144154720419 126.46777366721139 82.08286432313531
    vertex 113.6144154720419 124.95013557700634 82.28266516814455
    vertex 113.6144154720419 125.98541175741641 82.28266516814455
  endloop
endfacet
facet normal -1.0 -4.44089209850101e-16 6.331127476180246e-15
  outer loop
    vertex 113.6144154720419 125.98541175741641 82.28266516814455
    vertex 113.6144154720419 124.95013557700634 82.28266516814455
    vertex 113.6144154720419 125.46777366721139 82.35081351556643
  endloop
endfacet
facet normal 6.334929076529181e-15 -0.13052619222007827 0.9914448613738069
  outer loop
    vertex 114.75773047204173 155.47672420744877 82.3508135155664
    vertex 113.61441547204194 154.9590861172437 82.28266516814453
    vertex 114.75773047204173 154.9590861172437 82.28266516814453
  endloop
endfacet
facet normal 6.334929076529181e-15 -0.13052619222007827 0.9914448613738069
  outer loop
    vertex 113.61441547204194 154.9590861172437 82.28266516814453
    vertex 114.75773047204173 155.47672420744877 82.3508135155664
    vertex 113.61441547204194 155.47672420744877 82.35081351556641
  endloop
endfacet
facet normal 6.218998529393685e-15 0.13052619222006576 0.9914448613738087
  outer loop
    vertex 114.75773047204173 155.99436229765382 82.28266516814453
    vertex 113.61441547204194 155.47672420744877 82.35081351556641
    vertex 114.75773047204173 155.47672420744877 82.3508135155664
  endloop
endfacet
facet normal 6.218998529393685e-15 0.13052619222006576 0.9914448613738087
  outer loop
    vertex 113.61441547204194 155.47672420744877 82.35081351556641
    vertex 114.75773047204173 155.99436229765382 82.28266516814453
    vertex 113.61441547204194 155.99436229765382 82.28266516814453
  endloop
endfacet
facet normal -3.501826551614061e-15 -0.7933533402912271 -0.6087614290087314
  outer loop
    vertex 113.6144154720419 123.73572285964252 79.35081351556643
    vertex 114.75773047204173 124.05356010483831 78.93659995319332
    vertex 114.75773047204173 123.73572285964252 79.35081351556641
  endloop
endfacet
facet normal -3.501826551614061e-15 -0.7933533402912271 -0.6087614290087314
  outer loop
    vertex 114.75773047204173 124.05356010483831 78.93659995319332
    vertex 113.6144154720419 123.73572285964252 79.35081351556643
    vertex 113.6144154720419 124.05356010483831 78.93659995319332
  endloop
endfacet
facet normal -2.012532661735979e-15 -0.923879532511286 -0.38268343236509167
  outer loop
    vertex 113.6144154720419 123.53592201463327 79.83317542536138
    vertex 114.75773047204173 123.73572285964252 79.35081351556641
    vertex 114.75773047204173 123.53592201463327 79.83317542536138
  endloop
endfacet
facet normal -2.012532661735979e-15 -0.923879532511286 -0.38268343236509167
  outer loop
    vertex 114.75773047204173 123.73572285964252 79.35081351556641
    vertex 113.6144154720419 123.53592201463327 79.83317542536138
    vertex 113.6144154720419 123.73572285964252 79.35081351556643
  endloop
endfacet
facet normal -3.860879968281495e-16 -0.9914448613738097 -0.13052619222005704
  outer loop
    vertex 113.6144154720419 123.46777366721142 80.35081351556643
    vertex 114.75773047204173 123.53592201463327 79.83317542536138
    vertex 114.75773047204173 123.46777366721142 80.35081351556641
  endloop
endfacet
facet normal -3.860879968281495e-16 -0.9914448613738097 -0.13052619222005704
  outer loop
    vertex 114.75773047204173 123.53592201463327 79.83317542536138
    vertex 113.6144154720419 123.46777366721142 80.35081351556643
    vertex 113.6144154720419 123.53592201463327 79.83317542536138
  endloop
endfacet
facet normal 1.2666679270229467e-15 -0.9914448613738115 0.1305261922200445
  outer loop
    vertex 113.6144154720419 123.53592201463327 80.86845160577147
    vertex 114.75773047204173 123.46777366721142 80.35081351556641
    vertex 114.75773047204173 123.53592201463327 80.86845160577147
  endloop
endfacet
facet normal 1.2666679270229467e-15 -0.9914448613738115 0.1305261922200445
  outer loop
    vertex 114.75773047204173 123.46777366721142 80.35081351556641
    vertex 113.6144154720419 123.53592201463327 80.86845160577147
    vertex 113.6144154720419 123.46777366721142 80.35081351556643
  endloop
endfacet
facet normal 4.752476749041511e-15 0.6087614290087213 0.7933533402912346
  outer loop
    vertex 114.75773047204173 156.89093776982185 81.7650270779395
    vertex 113.61441547204194 156.47672420744877 82.0828643231353
    vertex 114.75773047204173 156.47672420744877 82.08286432313528
  endloop
endfacet
facet normal 4.752476749041511e-15 0.6087614290087213 0.7933533402912346
  outer loop
    vertex 113.61441547204194 156.47672420744877 82.0828643231353
    vertex 114.75773047204173 156.89093776982185 81.7650270779395
    vertex 113.61441547204194 156.89093776982185 81.76502707793951
  endloop
endfacet
facet normal 3.501826551614018e-15 0.7933533402912318 0.608761429008725
  outer loop
    vertex 113.61441547204194 157.20877501501764 81.35081351556643
    vertex 114.75773047204173 156.89093776982185 81.7650270779395
    vertex 114.75773047204173 157.20877501501764 81.35081351556641
  endloop
endfacet
facet normal 3.501826551614018e-15 0.7933533402912318 0.608761429008725
  outer loop
    vertex 114.75773047204173 156.89093776982185 81.7650270779395
    vertex 113.61441547204194 157.20877501501764 81.35081351556643
    vertex 113.61441547204194 156.89093776982185 81.76502707793951
  endloop
endfacet
facet normal 2.0125326617361206e-15 0.9238795325112771 0.38268343236511343
  outer loop
    vertex 113.61441547204191 157.40857586002693 80.86845160577145
    vertex 114.75773047204173 157.20877501501764 81.35081351556641
    vertex 114.7577304720417 157.40857586002693 80.86845160577145
  endloop
endfacet
facet normal 2.0125326617361206e-15 0.9238795325112771 0.38268343236511343
  outer loop
    vertex 114.75773047204173 157.20877501501764 81.35081351556641
    vertex 113.61441547204191 157.40857586002693 80.86845160577145
    vertex 113.61441547204194 157.20877501501764 81.35081351556643
  endloop
endfacet
facet normal 3.860879968280492e-16 0.9914448613738117 0.13052619222004136
  outer loop
    vertex 113.61441547204191 157.47672420744874 80.35081351556643
    vertex 114.7577304720417 157.40857586002693 80.86845160577145
    vertex 114.7577304720417 157.47672420744874 80.35081351556643
  endloop
endfacet
facet normal 3.860879968280492e-16 0.9914448613738117 0.13052619222004136
  outer loop
    vertex 114.7577304720417 157.40857586002693 80.86845160577145
    vertex 113.61441547204191 157.47672420744874 80.35081351556643
    vertex 113.61441547204191 157.40857586002693 80.86845160577145
  endloop
endfacet
facet normal -1.2666679270230802e-15 0.9914448613738087 -0.13052619222006576
  outer loop
    vertex 113.61441547204191 157.40857586002687 79.83317542536138
    vertex 114.7577304720417 157.47672420744874 80.35081351556643
    vertex 114.7577304720417 157.40857586002687 79.83317542536138
  endloop
endfacet
facet normal -1.2666679270230802e-15 0.9914448613738087 -0.13052619222006576
  outer loop
    vertex 114.7577304720417 157.47672420744874 80.35081351556643
    vertex 113.61441547204191 157.40857586002687 79.83317542536138
    vertex 113.61441547204191 157.47672420744874 80.35081351556643
  endloop
endfacet
facet normal -2.833102524915143e-15 0.9238795325112908 -0.38268343236508007
  outer loop
    vertex 113.61441547204191 157.20877501501764 79.35081351556643
    vertex 114.7577304720417 157.40857586002687 79.83317542536138
    vertex 114.7577304720417 157.20877501501764 79.35081351556643
  endloop
endfacet
facet normal -2.833102524915143e-15 0.9238795325112908 -0.38268343236508007
  outer loop
    vertex 114.7577304720417 157.40857586002687 79.83317542536138
    vertex 113.61441547204191 157.20877501501764 79.35081351556643
    vertex 113.61441547204191 157.40857586002687 79.83317542536138
  endloop
endfacet
facet normal -4.206465867657576e-15 0.7933533402912556 -0.6087614290086941
  outer loop
    vertex 113.61441547204191 156.89093776982185 78.93659995319332
    vertex 114.7577304720417 157.20877501501764 79.35081351556643
    vertex 114.7577304720417 156.89093776982185 78.93659995319332
  endloop
endfacet
facet normal -4.206465867657576e-15 0.7933533402912556 -0.6087614290086941
  outer loop
    vertex 114.7577304720417 157.20877501501764 79.35081351556643
    vertex 113.61441547204191 156.89093776982185 78.93659995319332
    vertex 113.61441547204191 157.20877501501764 79.35081351556643
  endloop
endfacet
facet normal -5.29316551303287e-15 0.6087614290087314 -0.7933533402912271
  outer loop
    vertex 113.61441547204191 156.89093776982185 78.93659995319332
    vertex 114.7577304720417 156.47672420744877 78.61876270799753
    vertex 113.61441547204191 156.47672420744877 78.61876270799753
  endloop
endfacet
facet normal -5.29316551303287e-15 0.6087614290087314 -0.7933533402912271
  outer loop
    vertex 114.7577304720417 156.47672420744877 78.61876270799753
    vertex 113.61441547204191 156.89093776982185 78.93659995319332
    vertex 114.7577304720417 156.89093776982185 78.93659995319332
  endloop
endfacet
facet normal -6.019144676064502e-15 0.3826834323650918 -0.923879532511286
  outer loop
    vertex 113.61441547204191 156.47672420744877 78.61876270799753
    vertex 114.7577304720417 155.99436229765382 78.41896186298827
    vertex 113.61441547204191 155.99436229765382 78.41896186298828
  endloop
endfacet
facet normal -6.019144676064502e-15 0.3826834323650918 -0.923879532511286
  outer loop
    vertex 114.7577304720417 155.99436229765382 78.41896186298827
    vertex 113.61441547204191 156.47672420744877 78.61876270799753
    vertex 114.7577304720417 156.47672420744877 78.61876270799753
  endloop
endfacet
facet normal -6.334929076529199e-15 0.13052619222003578 -0.9914448613738126
  outer loop
    vertex 113.61441547204191 155.99436229765382 78.41896186298828
    vertex 114.7577304720417 155.47672420744877 78.35081351556641
    vertex 113.61441547204191 155.47672420744877 78.35081351556643
  endloop
endfacet
facet normal -6.334929076529199e-15 0.13052619222003578 -0.9914448613738126
  outer loop
    vertex 114.7577304720417 155.47672420744877 78.35081351556641
    vertex 113.61441547204191 155.99436229765382 78.41896186298828
    vertex 114.7577304720417 155.99436229765382 78.41896186298827
  endloop
endfacet
facet normal -6.218998529393738e-15 -0.13052619222002323 -0.9914448613738142
  outer loop
    vertex 113.61441547204191 155.47672420744877 78.35081351556643
    vertex 114.7577304720417 154.9590861172437 78.41896186298825
    vertex 113.61441547204191 154.9590861172437 78.41896186298827
  endloop
endfacet
facet normal -6.218998529393738e-15 -0.13052619222002323 -0.9914448613738142
  outer loop
    vertex 114.7577304720417 154.9590861172437 78.41896186298825
    vertex 113.61441547204191 155.47672420744877 78.35081351556643
    vertex 114.7577304720417 155.47672420744877 78.35081351556641
  endloop
endfacet
facet normal -5.679253509861061e-15 -0.3826834323650801 -0.9238795325112908
  outer loop
    vertex 113.61441547204191 154.9590861172437 78.41896186298827
    vertex 114.7577304720417 154.47672420744877 78.61876270799752
    vertex 113.61441547204191 154.47672420744877 78.61876270799753
  endloop
endfacet
facet normal -5.679253509861061e-15 -0.3826834323650801 -0.9238795325112908
  outer loop
    vertex 114.7577304720417 154.47672420744877 78.61876270799752
    vertex 113.61441547204191 154.9590861172437 78.41896186298827
    vertex 114.7577304720417 154.9590861172437 78.41896186298825
  endloop
endfacet
facet normal -4.752476749041513e-15 -0.6087614290087213 -0.7933533402912348
  outer loop
    vertex 113.61441547204191 154.47672420744877 78.61876270799753
    vertex 114.7577304720417 154.06251064507566 78.93659995319331
    vertex 113.61441547204191 154.06251064507566 78.93659995319331
  endloop
endfacet
facet normal -4.752476749041513e-15 -0.6087614290087213 -0.7933533402912348
  outer loop
    vertex 114.7577304720417 154.06251064507566 78.93659995319331
    vertex 113.61441547204191 154.47672420744877 78.61876270799753
    vertex 114.7577304720417 154.47672420744877 78.61876270799752
  endloop
endfacet
facet normal -3.501826551613879e-15 -0.7933533402912478 -0.6087614290087041
  outer loop
    vertex 113.61441547204191 153.7446733998799 79.3508135155664
    vertex 114.7577304720417 154.06251064507566 78.93659995319331
    vertex 114.7577304720417 153.7446733998799 79.3508135155664
  endloop
endfacet
facet normal -3.501826551613879e-15 -0.7933533402912478 -0.6087614290087041
  outer loop
    vertex 114.7577304720417 154.06251064507566 78.93659995319331
    vertex 113.61441547204191 153.7446733998799 79.3508135155664
    vertex 113.61441547204191 154.06251064507566 78.93659995319331
  endloop
endfacet
facet normal -2.0125326617362204e-15 -0.9238795325112709 -0.3826834323651287
  outer loop
    vertex 113.61441547204191 153.54487255487058 79.83317542536136
    vertex 114.7577304720417 153.7446733998799 79.3508135155664
    vertex 114.7577304720417 153.54487255487058 79.83317542536136
  endloop
endfacet
facet normal -2.0125326617362204e-15 -0.9238795325112709 -0.3826834323651287
  outer loop
    vertex 114.7577304720417 153.7446733998799 79.3508135155664
    vertex 113.61441547204191 153.54487255487058 79.83317542536136
    vertex 113.61441547204191 153.7446733998799 79.3508135155664
  endloop
endfacet
facet normal 3.860879968281851e-16 0.991444861373809 0.13052619222006262
  outer loop
    vertex 113.6144154720419 127.4677736672114 80.35081351556644
    vertex 114.75773047204173 127.39962531978954 80.86845160577147
    vertex 114.75773047204173 127.4677736672114 80.35081351556644
  endloop
endfacet
facet normal 3.860879968281851e-16 0.991444861373809 0.13052619222006262
  outer loop
    vertex 114.75773047204173 127.39962531978954 80.86845160577147
    vertex 113.6144154720419 127.4677736672114 80.35081351556644
    vertex 113.6144154720419 127.39962531978954 80.86845160577147
  endloop
endfacet
facet normal 2.0125326617358804e-15 0.9238795325112924 0.3826834323650765
  outer loop
    vertex 113.6144154720419 127.39962531978954 80.86845160577147
    vertex 114.75773047204173 127.19982447478027 81.35081351556643
    vertex 114.75773047204173 127.39962531978954 80.86845160577147
  endloop
endfacet
facet normal 2.0125326617358804e-15 0.9238795325112924 0.3826834323650765
  outer loop
    vertex 114.75773047204173 127.19982447478027 81.35081351556643
    vertex 113.6144154720419 127.39962531978954 80.86845160577147
    vertex 113.6144154720419 127.19982447478027 81.35081351556644
  endloop
endfacet
facet normal 3.501826551614109e-15 0.7933533402912215 0.6087614290087386
  outer loop
    vertex 113.6144154720419 127.19982447478027 81.35081351556644
    vertex 114.75773047204173 126.88198722958451 81.76502707793951
    vertex 114.75773047204173 127.19982447478027 81.35081351556643
  endloop
endfacet
facet normal 3.501826551614109e-15 0.7933533402912215 0.6087614290087386
  outer loop
    vertex 114.75773047204173 126.88198722958451 81.76502707793951
    vertex 113.6144154720419 127.19982447478027 81.35081351556644
    vertex 113.6144154720419 126.88198722958448 81.76502707793952
  endloop
endfacet
facet normal 4.752476749041513e-15 0.6087614290087213 0.7933533402912348
  outer loop
    vertex 114.75773047204173 126.88198722958451 81.76502707793951
    vertex 113.6144154720419 126.46777366721139 82.08286432313531
    vertex 114.75773047204173 126.46777366721139 82.0828643231353
  endloop
endfacet
facet normal 4.752476749041513e-15 0.6087614290087213 0.7933533402912348
  outer loop
    vertex 113.6144154720419 126.46777366721139 82.08286432313531
    vertex 114.75773047204173 126.88198722958451 81.76502707793951
    vertex 113.6144154720419 126.88198722958448 81.76502707793952
  endloop
endfacet
facet normal -5.195843755245649e-15 -1.0 -6.3311274761802034e-15
  outer loop
    vertex 114.7577304720417 150.47672420744874 70.35081351556643
    vertex 118.75773047204167 150.47672420744877 60.35081351556642
    vertex 118.75773047204174 150.4767242074487 70.35081351556643
  endloop
endfacet
facet normal -5.195843755245649e-15 -1.0 -6.3311274761802034e-15
  outer loop
    vertex 118.75773047204167 150.47672420744877 60.35081351556642
    vertex 114.7577304720417 150.47672420744874 70.35081351556643
    vertex 114.75773047204159 150.4767242074488 60.35081351556642
  endloop
endfacet
facet normal 6.911945110845844e-16 4.3376460999373263e-16 1.0
  outer loop
    vertex 118.75773047204167 150.47672420744877 60.35081351556642
    vertex 114.75773047204163 130.46777366721136 60.35081351556643
    vertex 118.75773047204167 130.46777366721133 60.35081351556642
  endloop
endfacet
facet normal 6.911945110845844e-16 4.3376460999373263e-16 1.0
  outer loop
    vertex 114.75773047204163 130.46777366721136 60.35081351556643
    vertex 118.75773047204167 150.47672420744877 60.35081351556642
    vertex 114.75773047204159 150.4767242074488 60.35081351556642
  endloop
endfacet
facet normal 8.015810237793548e-15 1.0 -4.3679208193484483e-16
  outer loop
    vertex 114.75773047204163 130.46777366721136 60.35081351556643
    vertex 118.75773047204174 130.46777366721133 70.35081351556629
    vertex 118.75773047204167 130.46777366721133 60.35081351556642
  endloop
endfacet
facet normal 8.015810237793548e-15 1.0 -4.3679208193484483e-16
  outer loop
    vertex 118.75773047204174 130.46777366721133 70.35081351556629
    vertex 114.75773047204163 130.46777366721136 60.35081351556643
    vertex 114.7577304720417 130.4677736672114 70.3508135155663
  endloop
endfacet
facet normal -6.911945110845071e-16 6.331127476180251e-15 -1.0
  outer loop
    vertex 114.7577304720417 130.4677736672114 70.3508135155663
    vertex 118.75773047204174 150.4767242074487 70.35081351556643
    vertex 118.75773047204174 130.46777366721133 70.35081351556629
  endloop
endfacet
facet normal -6.911945110845071e-16 6.331127476180251e-15 -1.0
  outer loop
    vertex 118.75773047204174 150.4767242074487 70.35081351556643
    vertex 114.7577304720417 130.4677736672114 70.3508135155663
    vertex 114.7577304720417 150.47672420744874 70.35081351556643
  endloop
endfacet
endsolid PYVISTA_1
