solid PYVISTA_1
facet normal 5.689875108804919e-15 -0.38268343236508007 0.9238795325112908
  outer loop
    vertex -9.592127719064763 10.337833532862009 82.0828643231361
    vertex -8.448812719064936 10.820195442656985 82.28266516814534
    vertex -9.592127719064763 10.820195442656987 82.28266516814534
  endloop
endfacet
facet normal 5.689875108804919e-15 -0.38268343236508007 0.9238795325112908
  outer loop
    vertex -8.448812719064936 10.820195442656985 82.28266516814534
    vertex -9.592127719064763 10.337833532862009 82.0828643231361
    vertex -8.448812719064936 10.337833532862009 82.08286432313608
  endloop
endfacet
facet normal 6.3313062469311976e-15 0.13052619222008108 0.9914448613738067
  outer loop
    vertex -9.592127719064761 11.337833532862009 82.35081351556721
    vertex -8.448812719064934 11.855471623067054 82.28266516814534
    vertex -9.592127719064763 11.855471623067055 82.28266516814534
  endloop
endfacet
facet normal 6.3313062469311976e-15 0.13052619222008108 0.9914448613738067
  outer loop
    vertex -8.448812719064934 11.855471623067054 82.28266516814534
    vertex -9.592127719064761 11.337833532862009 82.35081351556721
    vertex -8.448812719064934 11.337833532862007 82.35081351556721
  endloop
endfacet
facet normal 4.1844458890315e-15 0.7933533402912186 0.6087614290087422
  outer loop
    vertex -8.448812719064938 12.752047095235104 81.76502707794029
    vertex -9.592127719064766 13.069884340430892 81.35081351556721
    vertex -9.592127719064765 12.752047095235104 81.76502707794029
  endloop
endfacet
facet normal 4.1844458890315e-15 0.7933533402912186 0.6087614290087422
  outer loop
    vertex -9.592127719064766 13.069884340430892 81.35081351556721
    vertex -8.448812719064938 12.752047095235104 81.76502707794029
    vertex -8.44881271906494 13.069884340430892 81.3508135155672
  endloop
endfacet
facet normal 6.22262135899167e-15 -0.13052619222006573 0.9914448613738087
  outer loop
    vertex -9.592127719064763 10.820195442656987 82.28266516814534
    vertex -8.448812719064934 11.337833532862007 82.35081351556721
    vertex -9.592127719064761 11.337833532862009 82.35081351556721
  endloop
endfacet
facet normal 6.22262135899167e-15 -0.13052619222006573 0.9914448613738087
  outer loop
    vertex -8.448812719064934 11.337833532862007 82.35081351556721
    vertex -9.592127719064763 10.820195442656987 82.28266516814534
    vertex -8.448812719064936 10.820195442656985 82.28266516814534
  endloop
endfacet
facet normal 6.008523077120663e-15 0.3826834323650842 0.9238795325112892
  outer loop
    vertex -9.592127719064763 11.855471623067055 82.28266516814534
    vertex -8.448812719064936 12.337833532862005 82.08286432313608
    vertex -9.592127719064763 12.337833532862005 82.08286432313608
  endloop
endfacet
facet normal 6.008523077120663e-15 0.3826834323650842 0.9238795325112892
  outer loop
    vertex -8.448812719064936 12.337833532862005 82.08286432313608
    vertex -9.592127719064763 11.855471623067055 82.28266516814534
    vertex -8.448812719064934 11.855471623067054 82.28266516814534
  endloop
endfacet
facet normal 2.8074597166907953e-15 0.9238795325112908 0.38268343236508007
  outer loop
    vertex -8.44881271906494 13.069884340430892 81.3508135155672
    vertex -9.59212771906477 13.269685185440144 80.86845160577226
    vertex -9.592127719064766 13.069884340430892 81.35081351556721
  endloop
endfacet
facet normal 2.8074597166907953e-15 0.9238795325112908 0.38268343236508007
  outer loop
    vertex -9.59212771906477 13.269685185440144 80.86845160577226
    vertex -8.44881271906494 13.069884340430892 81.3508135155672
    vertex -8.448812719064941 13.269685185440144 80.86845160577225
  endloop
endfacet
facet normal 5.276268989158095e-15 0.6087614290087418 0.7933533402912192
  outer loop
    vertex -9.592127719064763 12.337833532862005 82.08286432313608
    vertex -8.448812719064938 12.752047095235104 81.76502707794029
    vertex -9.592127719064765 12.752047095235104 81.76502707794029
  endloop
endfacet
facet normal 5.276268989158095e-15 0.6087614290087418 0.7933533402912192
  outer loop
    vertex -8.448812719064938 12.752047095235104 81.76502707794029
    vertex -9.592127719064763 12.337833532862005 82.08286432313608
    vertex -8.448812719064936 12.337833532862005 82.08286432313608
  endloop
endfacet
facet normal 1.0 -4.1633363423447117e-16 -1.2893958562837174e-14
  outer loop
    vertex -9.592127719064786 11.337833532861985 78.35081351556722
    vertex -9.592127719064798 -18.15347891717029 78.41896186298908
    vertex -9.5921277190648 -18.671117007375358 78.35081351556722
  endloop
endfacet
facet normal 1.0 -4.1633363423447117e-16 -1.2893958562837174e-14
  outer loop
    vertex -9.592127719064798 -18.15347891717029 78.41896186298908
    vertex -9.592127719064786 11.337833532861985 78.35081351556722
    vertex -9.592127719064786 10.820195442656962 78.4189618629891
  endloop
endfacet
facet normal 1.0 -4.1633363423447117e-16 -1.2893958562837174e-14
  outer loop
    vertex -9.592127719064798 -18.15347891717029 78.41896186298908
    vertex -9.592127719064786 10.820195442656962 78.4189618629891
    vertex -9.592127719064797 -17.67111700737536 78.61876270799831
  endloop
endfacet
facet normal 1.0 -4.1633363423447117e-16 -1.2893958562837174e-14
  outer loop
    vertex -9.592127719064797 -17.67111700737536 78.61876270799831
    vertex -9.592127719064786 10.820195442656962 78.4189618629891
    vertex -9.592127719064786 10.337833532861989 78.61876270799836
  endloop
endfacet
facet normal 1.0 -4.1633363423447117e-16 -1.2893958562837174e-14
  outer loop
    vertex -9.592127719064797 -17.67111700737536 78.61876270799831
    vertex -9.592127719064786 10.337833532861989 78.61876270799836
    vertex -9.592127719064795 -17.256903445002255 78.9365999531941
  endloop
endfacet
facet normal 1.0 -4.1633363423447117e-16 -1.2893958562837174e-14
  outer loop
    vertex -9.592127719064795 -17.256903445002255 78.9365999531941
    vertex -9.592127719064786 10.337833532861989 78.61876270799836
    vertex -9.592127719064784 9.923619970488911 78.93659995319415
  endloop
endfacet
facet normal 1.0 -4.1633363423447117e-16 -1.2893958562837174e-14
  outer loop
    vertex -9.592127719064795 -17.256903445002255 78.9365999531941
    vertex -9.592127719064784 9.923619970488911 78.93659995319415
    vertex -9.592127719064791 -16.939066199806486 79.35081351556721
  endloop
endfacet
facet normal 1.0 -4.1633363423447117e-16 -1.2893958562837174e-14
  outer loop
    vertex -9.592127719064791 -16.939066199806486 79.35081351556721
    vertex -9.592127719064784 9.923619970488911 78.93659995319415
    vertex -9.59212771906478 9.605782725293123 79.35081351556724
  endloop
endfacet
facet normal 1.0 -4.1633363423447117e-16 -1.2893958562837174e-14
  outer loop
    vertex -9.592127719064791 -16.939066199806486 79.35081351556721
    vertex -9.59212771906478 9.605782725293123 79.35081351556724
    vertex -9.59212771906479 -16.739265354797183 79.83317542536214
  endloop
endfacet
facet normal 1.0 -4.1633363423447117e-16 -1.2893958562837174e-14
  outer loop
    vertex -9.59212771906479 -16.739265354797183 79.83317542536214
    vertex -9.59212771906478 9.605782725293123 79.35081351556724
    vertex -9.592127719064779 9.405981880283871 79.8331754253622
  endloop
endfacet
facet normal 1.0 -4.1633363423447117e-16 -1.2893958562837174e-14
  outer loop
    vertex -9.59212771906479 -16.739265354797183 79.83317542536214
    vertex -9.592127719064779 9.405981880283871 79.8331754253622
    vertex -9.592127719064786 -16.67111700737535 80.3508135155672
  endloop
endfacet
facet normal 1.0 -4.1633363423447117e-16 -1.2893958562837174e-14
  outer loop
    vertex -9.592127719064786 -16.67111700737535 80.3508135155672
    vertex -9.592127719064779 9.405981880283871 79.8331754253622
    vertex -9.592127719064775 9.337833532862001 80.35081351556724
  endloop
endfacet
facet normal 1.0 -4.1633363423447117e-16 -1.2893958562837174e-14
  outer loop
    vertex -9.592127719064786 -16.67111700737535 80.3508135155672
    vertex -9.592127719064775 9.337833532862001 80.35081351556724
    vertex -9.592127719064784 -16.739265354797222 80.86845160577224
  endloop
endfacet
facet normal 1.0 -4.1633363423447117e-16 -1.2893958562837174e-14
  outer loop
    vertex -9.592127719064784 -16.739265354797222 80.86845160577224
    vertex -9.592127719064775 9.337833532862001 80.35081351556724
    vertex -9.592127719064772 9.405981880283878 80.86845160577226
  endloop
endfacet
facet normal 1.0 -4.1633363423447117e-16 -1.2893958562837174e-14
  outer loop
    vertex -9.592127719064784 -16.739265354797222 80.86845160577224
    vertex -9.592127719064772 9.405981880283878 80.86845160577226
    vertex -9.59212771906478 -16.939066199806476 81.3508135155672
  endloop
endfacet
facet normal 1.0 -4.1633363423447117e-16 -1.2893958562837174e-14
  outer loop
    vertex -9.59212771906478 -16.939066199806476 81.3508135155672
    vertex -9.592127719064772 9.405981880283878 80.86845160577226
    vertex -9.59212771906477 9.605782725293135 81.35081351556724
  endloop
endfacet
facet normal 1.0 -4.1633363423447117e-16 -1.2893958562837174e-14
  outer loop
    vertex -9.59212771906478 -16.939066199806476 81.3508135155672
    vertex -9.59212771906477 9.605782725293135 81.35081351556724
    vertex -9.592127719064777 -17.256903445002237 81.76502707794027
  endloop
endfacet
facet normal 1.0 -4.1633363423447117e-16 -1.2893958562837174e-14
  outer loop
    vertex -9.592127719064777 -17.256903445002237 81.76502707794027
    vertex -9.59212771906477 9.605782725293135 81.35081351556724
    vertex -9.592127719064766 9.923619970488907 81.76502707794032
  endloop
endfacet
facet normal 1.0 -4.1633363423447117e-16 -1.2893958562837174e-14
  outer loop
    vertex -9.592127719064777 -17.256903445002237 81.76502707794027
    vertex -9.592127719064766 9.923619970488907 81.76502707794032
    vertex -9.592127719064775 -17.67111700737534 82.08286432313606
  endloop
endfacet
facet normal 1.0 -4.1633363423447117e-16 -1.2893958562837174e-14
  outer loop
    vertex -9.592127719064775 -17.67111700737534 82.08286432313606
    vertex -9.592127719064766 9.923619970488907 81.76502707794032
    vertex -9.592127719064763 10.337833532862009 82.0828643231361
  endloop
endfacet
facet normal 1.0 -4.1633363423447117e-16 -1.2893958562837174e-14
  outer loop
    vertex -9.592127719064775 -17.67111700737534 82.08286432313606
    vertex -9.592127719064763 10.337833532862009 82.0828643231361
    vertex -9.592127719064775 -18.15347891717027 82.28266516814534
  endloop
endfacet
facet normal 1.0 -4.1633363423447117e-16 -1.2893958562837174e-14
  outer loop
    vertex -9.592127719064775 -18.15347891717027 82.28266516814534
    vertex -9.592127719064763 10.337833532862009 82.0828643231361
    vertex -9.592127719064763 10.820195442656987 82.28266516814534
  endloop
endfacet
facet normal 1.0 -4.1633363423447117e-16 -1.2893958562837174e-14
  outer loop
    vertex -9.592127719064775 -18.15347891717027 82.28266516814534
    vertex -9.592127719064763 10.820195442656987 82.28266516814534
    vertex -9.592127719064775 -18.671117007375337 82.35081351556721
  endloop
endfacet
facet normal 1.0 -4.1633363423447117e-16 -1.2893958562837174e-14
  outer loop
    vertex -9.592127719064775 -18.671117007375337 82.35081351556721
    vertex -9.592127719064763 10.820195442656987 82.28266516814534
    vertex -9.592127719064761 11.337833532862009 82.35081351556721
  endloop
endfacet
facet normal 1.0 -4.1633363423447117e-16 -1.2893958562837174e-14
  outer loop
    vertex -9.592127719065449 18.83783353286205 30.35081351556723
    vertex -9.592127719064948 6.33783353286206 60.35081351556723
    vertex -9.592127719064912 -13.671117007375392 60.35081351556722
  endloop
endfacet
facet normal 1.0 -4.1633363423447117e-16 -1.2893958562837174e-14
  outer loop
    vertex -9.592127719064948 6.33783353286206 60.35081351556723
    vertex -9.592127719065449 18.83783353286205 30.35081351556723
    vertex -9.59212771906474 18.83783353286204 85.35081351556721
  endloop
endfacet
facet normal 1.0 -4.1633363423447117e-16 -1.2893958562837174e-14
  outer loop
    vertex -9.592127719064948 6.33783353286206 60.35081351556723
    vertex -9.59212771906474 18.83783353286204 85.35081351556721
    vertex -9.592127719064885 6.337833532862033 70.3508135155671
  endloop
endfacet
facet normal 1.0 -4.1633363423447117e-16 -1.2893958562837174e-14
  outer loop
    vertex -9.592127719064885 6.337833532862033 70.3508135155671
    vertex -9.59212771906474 18.83783353286204 85.35081351556721
    vertex -9.592127719064784 12.752047095235085 78.93659995319412
  endloop
endfacet
facet normal 1.0 -4.1633363423447117e-16 -1.2893958562837174e-14
  outer loop
    vertex -9.592127719064885 6.337833532862033 70.3508135155671
    vertex -9.592127719064784 12.752047095235085 78.93659995319412
    vertex -9.592127719064786 12.337833532861984 78.61876270799833
  endloop
endfacet
facet normal 1.0 -4.1633363423447117e-16 -1.2893958562837174e-14
  outer loop
    vertex -9.592127719064885 6.337833532862033 70.3508135155671
    vertex -9.592127719064786 12.337833532861984 78.61876270799833
    vertex -9.592127719064786 11.855471623067054 78.41896186298908
  endloop
endfacet
facet normal 1.0 -4.1633363423447117e-16 -1.2893958562837174e-14
  outer loop
    vertex -9.592127719064885 6.337833532862033 70.3508135155671
    vertex -9.592127719064786 11.855471623067054 78.41896186298908
    vertex -9.592127719064893 -13.67111700737533 70.35081351556722
  endloop
endfacet
facet normal 1.0 -4.1633363423447117e-16 -1.2893958562837174e-14
  outer loop
    vertex -9.592127719064893 -13.67111700737533 70.35081351556722
    vertex -9.592127719064786 11.855471623067054 78.41896186298908
    vertex -9.592127719064786 11.337833532861985 78.35081351556722
  endloop
endfacet
facet normal 1.0 -4.1633363423447117e-16 -1.2893958562837174e-14
  outer loop
    vertex -9.592127719064893 -13.67111700737533 70.35081351556722
    vertex -9.592127719064786 11.337833532861985 78.35081351556722
    vertex -9.5921277190648 -18.671117007375358 78.35081351556722
  endloop
endfacet
facet normal 1.0 -4.1633363423447117e-16 -1.2893958562837174e-14
  outer loop
    vertex -9.592127719064784 12.752047095235085 78.93659995319412
    vertex -9.59212771906474 18.83783353286204 85.35081351556721
    vertex -9.59212771906478 13.069884340430882 79.35081351556722
  endloop
endfacet
facet normal 1.0 -4.1633363423447117e-16 -1.2893958562837174e-14
  outer loop
    vertex -9.59212771906478 13.069884340430882 79.35081351556722
    vertex -9.59212771906474 18.83783353286204 85.35081351556721
    vertex -9.592127719064777 13.269685185440137 79.83317542536217
  endloop
endfacet
facet normal 1.0 -4.1633363423447117e-16 -1.2893958562837174e-14
  outer loop
    vertex -9.592127719064777 13.269685185440137 79.83317542536217
    vertex -9.59212771906474 18.83783353286204 85.35081351556721
    vertex -9.592127719064774 13.337833532861994 80.35081351556721
  endloop
endfacet
facet normal 1.0 -4.1633363423447117e-16 -1.2893958562837174e-14
  outer loop
    vertex -9.592127719064774 13.337833532861994 80.35081351556721
    vertex -9.59212771906474 18.83783353286204 85.35081351556721
    vertex -9.59212771906477 13.269685185440144 80.86845160577226
  endloop
endfacet
facet normal 1.0 -4.1633363423447117e-16 -1.2893958562837174e-14
  outer loop
    vertex -9.59212771906477 13.269685185440144 80.86845160577226
    vertex -9.59212771906474 18.83783353286204 85.35081351556721
    vertex -9.592127719064766 13.069884340430892 81.35081351556721
  endloop
endfacet
facet normal 1.0 -4.1633363423447117e-16 -1.2893958562837174e-14
  outer loop
    vertex -9.592127719064766 13.069884340430892 81.35081351556721
    vertex -9.59212771906474 18.83783353286204 85.35081351556721
    vertex -9.592127719064765 12.752047095235104 81.76502707794029
  endloop
endfacet
facet normal 1.0 -4.1633363423447117e-16 -1.2893958562837174e-14
  outer loop
    vertex -9.592127719064765 12.752047095235104 81.76502707794029
    vertex -9.59212771906474 18.83783353286204 85.35081351556721
    vertex -9.592127719064763 12.337833532862005 82.08286432313608
  endloop
endfacet
facet normal 1.0 -4.1633363423447117e-16 -1.2893958562837174e-14
  outer loop
    vertex -9.592127719064763 12.337833532862005 82.08286432313608
    vertex -9.59212771906474 18.83783353286204 85.35081351556721
    vertex -9.592127719064763 11.855471623067055 82.28266516814534
  endloop
endfacet
facet normal 1.0 -4.1633363423447117e-16 -1.2893958562837174e-14
  outer loop
    vertex -9.592127719064763 11.855471623067055 82.28266516814534
    vertex -9.59212771906474 18.83783353286204 85.35081351556721
    vertex -9.592127719064761 11.337833532862009 82.35081351556721
  endloop
endfacet
facet normal 1.0 -4.1633363423447117e-16 -1.2893958562837174e-14
  outer loop
    vertex -9.592127719064761 11.337833532862009 82.35081351556721
    vertex -9.59212771906474 18.83783353286204 85.35081351556721
    vertex -9.592127719064758 -26.171117007375322 85.35081351556721
  endloop
endfacet
facet normal 1.0 -4.1633363423447117e-16 -1.2893958562837174e-14
  outer loop
    vertex -9.592127719065468 -26.17111700737531 30.350813515567214
    vertex -9.592127719064912 -13.671117007375392 60.35081351556722
    vertex -9.592127719064758 -26.171117007375322 85.35081351556721
  endloop
endfacet
facet normal 1.0 -4.1633363423447117e-16 -1.2893958562837174e-14
  outer loop
    vertex -9.592127719064912 -13.671117007375392 60.35081351556722
    vertex -9.592127719065468 -26.17111700737531 30.350813515567214
    vertex -9.592127719065449 18.83783353286205 30.35081351556723
  endloop
endfacet
facet normal 1.0 -4.1633363423447117e-16 -1.2893958562837174e-14
  outer loop
    vertex -9.592127719064758 -26.171117007375322 85.35081351556721
    vertex -9.592127719064912 -13.671117007375392 60.35081351556722
    vertex -9.592127719064893 -13.67111700737533 70.35081351556722
  endloop
endfacet
facet normal 1.0 -4.1633363423447117e-16 -1.2893958562837174e-14
  outer loop
    vertex -9.592127719064758 -26.171117007375322 85.35081351556721
    vertex -9.592127719064893 -13.67111700737533 70.35081351556722
    vertex -9.592127719064797 -20.085330569748454 78.93659995319412
  endloop
endfacet
facet normal 1.0 -4.1633363423447117e-16 -1.2893958562837174e-14
  outer loop
    vertex -9.592127719064797 -20.085330569748454 78.93659995319412
    vertex -9.592127719064893 -13.67111700737533 70.35081351556722
    vertex -9.592127719064798 -19.671117007375358 78.61876270799833
  endloop
endfacet
facet normal 1.0 -4.1633363423447117e-16 -1.2893958562837174e-14
  outer loop
    vertex -9.592127719064798 -19.671117007375358 78.61876270799833
    vertex -9.592127719064893 -13.67111700737533 70.35081351556722
    vertex -9.592127719064798 -19.188755097580426 78.41896186298908
  endloop
endfacet
facet normal 1.0 -4.1633363423447117e-16 -1.2893958562837174e-14
  outer loop
    vertex -9.592127719064798 -19.188755097580426 78.41896186298908
    vertex -9.592127719064893 -13.67111700737533 70.35081351556722
    vertex -9.5921277190648 -18.671117007375358 78.35081351556722
  endloop
endfacet
facet normal 1.0 -4.1633363423447117e-16 -1.2893958562837174e-14
  outer loop
    vertex -9.592127719064758 -26.171117007375322 85.35081351556721
    vertex -9.592127719064797 -20.085330569748454 78.93659995319412
    vertex -9.592127719064795 -20.403167814944222 79.35081351556722
  endloop
endfacet
facet normal 1.0 -4.1633363423447117e-16 -1.2893958562837174e-14
  outer loop
    vertex -9.592127719064758 -26.171117007375322 85.35081351556721
    vertex -9.592127719064795 -20.403167814944222 79.35081351556722
    vertex -9.592127719064791 -20.60296865995347 79.83317542536219
  endloop
endfacet
facet normal 1.0 -4.1633363423447117e-16 -1.2893958562837174e-14
  outer loop
    vertex -9.592127719064758 -26.171117007375322 85.35081351556721
    vertex -9.592127719064791 -20.60296865995347 79.83317542536219
    vertex -9.592127719064788 -20.671117007375344 80.35081351556722
  endloop
endfacet
facet normal 1.0 -4.1633363423447117e-16 -1.2893958562837174e-14
  outer loop
    vertex -9.592127719064758 -26.171117007375322 85.35081351556721
    vertex -9.592127719064788 -20.671117007375344 80.35081351556722
    vertex -9.592127719064784 -20.602968659953508 80.86845160577225
  endloop
endfacet
facet normal 1.0 -4.1633363423447117e-16 -1.2893958562837174e-14
  outer loop
    vertex -9.592127719064758 -26.171117007375322 85.35081351556721
    vertex -9.592127719064784 -20.602968659953508 80.86845160577225
    vertex -9.59212771906478 -20.403167814944208 81.35081351556721
  endloop
endfacet
facet normal 1.0 -4.1633363423447117e-16 -1.2893958562837174e-14
  outer loop
    vertex -9.592127719064758 -26.171117007375322 85.35081351556721
    vertex -9.59212771906478 -20.403167814944208 81.35081351556721
    vertex -9.592127719064777 -20.085330569748436 81.76502707794029
  endloop
endfacet
facet normal 1.0 -4.1633363423447117e-16 -1.2893958562837174e-14
  outer loop
    vertex -9.592127719064758 -26.171117007375322 85.35081351556721
    vertex -9.592127719064777 -20.085330569748436 81.76502707794029
    vertex -9.592127719064777 -19.671117007375337 82.08286432313608
  endloop
endfacet
facet normal 1.0 -4.1633363423447117e-16 -1.2893958562837174e-14
  outer loop
    vertex -9.592127719064758 -26.171117007375322 85.35081351556721
    vertex -9.592127719064777 -19.671117007375337 82.08286432313608
    vertex -9.592127719064775 -19.188755097580405 82.28266516814534
  endloop
endfacet
facet normal 1.0 -4.1633363423447117e-16 -1.2893958562837174e-14
  outer loop
    vertex -9.592127719064758 -26.171117007375322 85.35081351556721
    vertex -9.592127719064775 -19.188755097580405 82.28266516814534
    vertex -9.592127719064775 -18.671117007375337 82.35081351556721
  endloop
endfacet
facet normal 1.0 -4.1633363423447117e-16 -1.2893958562837174e-14
  outer loop
    vertex -9.592127719064758 -26.171117007375322 85.35081351556721
    vertex -9.592127719064775 -18.671117007375337 82.35081351556721
    vertex -9.592127719064761 11.337833532862009 82.35081351556721
  endloop
endfacet
facet normal -1.0 4.163336342344728e-16 1.2893958562837174e-14
  outer loop
    vertex -13.592127719065461 -26.17111700737531 30.350813515567275
    vertex -13.592127719064994 -13.671117007375345 60.35081351556727
    vertex -13.592127719065441 18.837833532862053 30.350813515567264
  endloop
endfacet
facet normal -1.0 4.163336342344728e-16 1.2893958562837174e-14
  outer loop
    vertex -13.592127719064994 -13.671117007375345 60.35081351556727
    vertex -13.592127719065461 -26.17111700737531 30.350813515567275
    vertex -13.59212771906475 -26.171117007375322 85.35081351556725
  endloop
endfacet
facet normal -1.0 4.163336342344728e-16 1.2893958562837174e-14
  outer loop
    vertex -13.592127719064994 -13.671117007375345 60.35081351556727
    vertex -13.59212771906475 -26.171117007375322 85.35081351556725
    vertex -13.592127719064932 -13.671117007375283 70.35081351556727
  endloop
endfacet
facet normal -1.0 4.163336342344728e-16 1.2893958562837174e-14
  outer loop
    vertex -13.592127719064932 -13.671117007375283 70.35081351556727
    vertex -13.59212771906475 -26.171117007375322 85.35081351556725
    vertex -13.592127719064923 6.3378335328620805 70.35081351556714
  endloop
endfacet
facet normal -1.0 4.163336342344728e-16 1.2893958562837174e-14
  outer loop
    vertex -13.592127719065441 18.837833532862053 30.350813515567264
    vertex -13.592127719064985 6.337833532862084 60.350813515567275
    vertex -13.592127719064734 18.83783353286204 85.35081351556725
  endloop
endfacet
facet normal -1.0 4.163336342344728e-16 1.2893958562837174e-14
  outer loop
    vertex -13.592127719064985 6.337833532862084 60.350813515567275
    vertex -13.592127719065441 18.837833532862053 30.350813515567264
    vertex -13.592127719064994 -13.671117007375345 60.35081351556727
  endloop
endfacet
facet normal -1.0 4.163336342344728e-16 1.2893958562837174e-14
  outer loop
    vertex -13.592127719064734 18.83783353286204 85.35081351556725
    vertex -13.592127719064985 6.337833532862084 60.350813515567275
    vertex -13.592127719064923 6.3378335328620805 70.35081351556714
  endloop
endfacet
facet normal -1.0 4.163336342344728e-16 1.2893958562837174e-14
  outer loop
    vertex -13.592127719064734 18.83783353286204 85.35081351556725
    vertex -13.592127719064923 6.3378335328620805 70.35081351556714
    vertex -13.59212771906475 -26.171117007375322 85.35081351556725
  endloop
endfacet
facet normal -4.1633363423451954e-16 -1.0 -2.317036104766798e-16
  outer loop
    vertex -9.592127719065468 -26.17111700737531 30.350813515567214
    vertex -13.59212771906475 -26.171117007375322 85.35081351556725
    vertex -13.592127719065461 -26.17111700737531 30.350813515567275
  endloop
endfacet
facet normal -4.1633363423451954e-16 -1.0 -2.317036104766798e-16
  outer loop
    vertex -13.59212771906475 -26.171117007375322 85.35081351556725
    vertex -9.592127719065468 -26.17111700737531 30.350813515567214
    vertex -9.592127719064758 -26.171117007375322 85.35081351556721
  endloop
endfacet
facet normal 1.1971060441276052e-14 -1.8483236435850211e-16 1.0
  outer loop
    vertex -13.59212771906475 -26.171117007375322 85.35081351556725
    vertex -9.59212771906474 18.83783353286204 85.35081351556721
    vertex -13.592127719064734 18.83783353286204 85.35081351556725
  endloop
endfacet
facet normal 1.1971060441276052e-14 -1.8483236435850211e-16 1.0
  outer loop
    vertex -9.59212771906474 18.83783353286204 85.35081351556721
    vertex -13.59212771906475 -26.171117007375322 85.35081351556725
    vertex -9.592127719064758 -26.171117007375322 85.35081351556721
  endloop
endfacet
facet normal 4.1633363423450115e-16 1.0 2.3170361047667742e-16
  outer loop
    vertex -13.592127719064734 18.83783353286204 85.35081351556725
    vertex -9.592127719065449 18.83783353286205 30.35081351556723
    vertex -13.592127719065441 18.837833532862053 30.350813515567264
  endloop
endfacet
facet normal 4.1633363423450115e-16 1.0 2.3170361047667742e-16
  outer loop
    vertex -9.592127719065449 18.83783353286205 30.35081351556723
    vertex -13.592127719064734 18.83783353286204 85.35081351556725
    vertex -9.59212771906474 18.83783353286204 85.35081351556721
  endloop
endfacet
facet normal -1.1971060441276052e-14 5.9525444348141e-17 -1.0
  outer loop
    vertex -9.592127719065468 -26.17111700737531 30.350813515567214
    vertex -13.592127719065441 18.837833532862053 30.350813515567264
    vertex -9.592127719065449 18.83783353286205 30.35081351556723
  endloop
endfacet
facet normal -1.1971060441276052e-14 5.9525444348141e-17 -1.0
  outer loop
    vertex -13.592127719065441 18.837833532862053 30.350813515567264
    vertex -9.592127719065468 -26.17111700737531 30.350813515567214
    vertex -13.592127719065461 -26.17111700737531 30.350813515567275
  endloop
endfacet
facet normal -1.2391498042043603e-15 -0.9914448613738115 -0.13052619222004452
  outer loop
    vertex -8.448812719064952 9.405981880283871 79.8331754253622
    vertex -9.592127719064775 9.337833532862001 80.35081351556724
    vertex -9.592127719064779 9.405981880283871 79.8331754253622
  endloop
endfacet
facet normal -1.2391498042043603e-15 -0.9914448613738115 -0.13052619222004452
  outer loop
    vertex -9.592127719064775 9.337833532862001 80.35081351556724
    vertex -8.448812719064952 9.405981880283871 79.8331754253622
    vertex -8.448812719064948 9.337833532862 80.35081351556724
  endloop
endfacet
facet normal -2.8074597166907953e-15 -0.9238795325112908 -0.38268343236508007
  outer loop
    vertex -8.448812719064954 9.605782725293123 79.35081351556724
    vertex -9.592127719064779 9.405981880283871 79.8331754253622
    vertex -9.59212771906478 9.605782725293123 79.35081351556724
  endloop
endfacet
facet normal -2.8074597166907953e-15 -0.9238795325112908 -0.38268343236508007
  outer loop
    vertex -9.592127719064779 9.405981880283871 79.8331754253622
    vertex -8.448812719064954 9.605782725293123 79.35081351556724
    vertex -8.448812719064952 9.405981880283871 79.8331754253622
  endloop
endfacet
facet normal -4.1844458890313746e-15 -0.7933533402912346 -0.6087614290087213
  outer loop
    vertex -8.448812719064955 9.923619970488911 78.93659995319413
    vertex -9.59212771906478 9.605782725293123 79.35081351556724
    vertex -9.592127719064784 9.923619970488911 78.93659995319415
  endloop
endfacet
facet normal -4.1844458890313746e-15 -0.7933533402912346 -0.6087614290087213
  outer loop
    vertex -9.59212771906478 9.605782725293123 79.35081351556724
    vertex -8.448812719064955 9.923619970488911 78.93659995319413
    vertex -8.448812719064954 9.605782725293123 79.35081351556724
  endloop
endfacet
facet normal -5.276268989158095e-15 -0.6087614290087418 -0.7933533402912192
  outer loop
    vertex -8.448812719064955 9.923619970488911 78.93659995319413
    vertex -9.592127719064786 10.337833532861989 78.61876270799836
    vertex -8.448812719064959 10.337833532861987 78.61876270799834
  endloop
endfacet
facet normal -5.276268989158095e-15 -0.6087614290087418 -0.7933533402912192
  outer loop
    vertex -9.592127719064786 10.337833532861989 78.61876270799836
    vertex -8.448812719064955 9.923619970488911 78.93659995319413
    vertex -9.592127719064784 9.923619970488911 78.93659995319415
  endloop
endfacet
facet normal -6.008523077120645e-15 -0.3826834323650917 -0.923879532511286
  outer loop
    vertex -8.448812719064959 10.337833532861987 78.61876270799834
    vertex -9.592127719064786 10.820195442656962 78.4189618629891
    vertex -8.448812719064959 10.82019544265696 78.41896186298908
  endloop
endfacet
facet normal -6.008523077120645e-15 -0.3826834323650917 -0.923879532511286
  outer loop
    vertex -9.592127719064786 10.820195442656962 78.4189618629891
    vertex -8.448812719064959 10.337833532861987 78.61876270799834
    vertex -9.592127719064786 10.337833532861989 78.61876270799836
  endloop
endfacet
facet normal -6.3313062469312165e-15 -0.1305261922200358 -0.9914448613738126
  outer loop
    vertex -8.448812719064959 10.82019544265696 78.41896186298908
    vertex -9.592127719064786 11.337833532861985 78.35081351556722
    vertex -8.448812719064959 11.337833532861984 78.35081351556722
  endloop
endfacet
facet normal -6.3313062469312165e-15 -0.1305261922200358 -0.9914448613738126
  outer loop
    vertex -9.592127719064786 11.337833532861985 78.35081351556722
    vertex -8.448812719064959 10.82019544265696 78.41896186298908
    vertex -9.592127719064786 10.820195442656962 78.4189618629891
  endloop
endfacet
facet normal -6.222621358991722e-15 0.13052619222002326 -0.9914448613738142
  outer loop
    vertex -8.448812719064959 11.337833532861984 78.35081351556722
    vertex -9.592127719064786 11.855471623067054 78.41896186298908
    vertex -8.448812719064959 11.855471623067052 78.41896186298908
  endloop
endfacet
facet normal -6.222621358991722e-15 0.13052619222002326 -0.9914448613738142
  outer loop
    vertex -9.592127719064786 11.855471623067054 78.41896186298908
    vertex -8.448812719064959 11.337833532861984 78.35081351556722
    vertex -9.592127719064786 11.337833532861985 78.35081351556722
  endloop
endfacet
facet normal -5.689875108804919e-15 0.38268343236508007 -0.9238795325112908
  outer loop
    vertex -8.448812719064959 11.855471623067052 78.41896186298908
    vertex -9.592127719064786 12.337833532861984 78.61876270799833
    vertex -8.448812719064959 12.337833532861984 78.61876270799833
  endloop
endfacet
facet normal -5.689875108804919e-15 0.38268343236508007 -0.9238795325112908
  outer loop
    vertex -9.592127719064786 12.337833532861984 78.61876270799833
    vertex -8.448812719064959 11.855471623067052 78.41896186298908
    vertex -9.592127719064786 11.855471623067054 78.41896186298908
  endloop
endfacet
facet normal -4.769373272916187e-15 0.6087614290087316 -0.7933533402912267
  outer loop
    vertex -8.448812719064959 12.337833532861984 78.61876270799833
    vertex -9.592127719064784 12.752047095235085 78.93659995319412
    vertex -8.448812719064955 12.752047095235085 78.93659995319412
  endloop
endfacet
facet normal -4.769373272916187e-15 0.6087614290087316 -0.7933533402912267
  outer loop
    vertex -9.592127719064784 12.752047095235085 78.93659995319412
    vertex -8.448812719064959 12.337833532861984 78.61876270799833
    vertex -9.592127719064786 12.337833532861984 78.61876270799833
  endloop
endfacet
facet normal 1.0 -4.163336342344728e-16 -6.3311274761802476e-15
  outer loop
    vertex -8.448812719065018 -18.15347891717029 78.41896186298906
    vertex -8.448812719065018 -19.188755097580426 78.41896186298908
    vertex -8.448812719065018 -18.671117007375358 78.35081351556721
  endloop
endfacet
facet normal 1.0 -4.163336342344728e-16 -6.3311274761802476e-15
  outer loop
    vertex -8.448812719065018 -19.188755097580426 78.41896186298908
    vertex -8.448812719065018 -18.15347891717029 78.41896186298906
    vertex -8.448812719065016 -17.67111700737536 78.6187627079983
  endloop
endfacet
facet normal 1.0 -4.163336342344728e-16 -6.3311274761802476e-15
  outer loop
    vertex -8.448812719065018 -19.188755097580426 78.41896186298908
    vertex -8.448812719065016 -17.67111700737536 78.6187627079983
    vertex -8.448812719065018 -19.671117007375358 78.61876270799833
  endloop
endfacet
facet normal 1.0 -4.163336342344728e-16 -6.3311274761802476e-15
  outer loop
    vertex -8.448812719065018 -19.671117007375358 78.61876270799833
    vertex -8.448812719065016 -17.67111700737536 78.6187627079983
    vertex -8.448812719065012 -17.256903445002255 78.93659995319409
  endloop
endfacet
facet normal 1.0 -4.163336342344728e-16 -6.3311274761802476e-15
  outer loop
    vertex -8.448812719065018 -19.671117007375358 78.61876270799833
    vertex -8.448812719065012 -17.256903445002255 78.93659995319409
    vertex -8.448812719065016 -20.085330569748454 78.93659995319412
  endloop
endfacet
facet normal 1.0 -4.163336342344728e-16 -6.3311274761802476e-15
  outer loop
    vertex -8.448812719065016 -20.085330569748454 78.93659995319412
    vertex -8.448812719065012 -17.256903445002255 78.93659995319409
    vertex -8.44881271906501 -16.939066199806486 79.3508135155672
  endloop
endfacet
facet normal 1.0 -4.163336342344728e-16 -6.3311274761802476e-15
  outer loop
    vertex -8.448812719065016 -20.085330569748454 78.93659995319412
    vertex -8.44881271906501 -16.939066199806486 79.3508135155672
    vertex -8.448812719065012 -20.403167814944222 79.35081351556722
  endloop
endfacet
facet normal 1.0 -4.163336342344728e-16 -6.3311274761802476e-15
  outer loop
    vertex -8.448812719065012 -20.403167814944222 79.35081351556722
    vertex -8.44881271906501 -16.939066199806486 79.3508135155672
    vertex -8.448812719065007 -16.739265354797183 79.83317542536214
  endloop
endfacet
facet normal 1.0 -4.163336342344728e-16 -6.3311274761802476e-15
  outer loop
    vertex -8.448812719065012 -20.403167814944222 79.35081351556722
    vertex -8.448812719065007 -16.739265354797183 79.83317542536214
    vertex -8.44881271906501 -20.60296865995347 79.83317542536217
  endloop
endfacet
facet normal 1.0 -4.163336342344728e-16 -6.3311274761802476e-15
  outer loop
    vertex -8.44881271906501 -20.60296865995347 79.83317542536217
    vertex -8.448812719065007 -16.739265354797183 79.83317542536214
    vertex -8.448812719065003 -16.67111700737535 80.3508135155672
  endloop
endfacet
facet normal 1.0 -4.163336342344728e-16 -6.3311274761802476e-15
  outer loop
    vertex -8.44881271906501 -20.60296865995347 79.83317542536217
    vertex -8.448812719065003 -16.67111700737535 80.3508135155672
    vertex -8.448812719065005 -20.671117007375344 80.35081351556721
  endloop
endfacet
facet normal 1.0 -4.163336342344728e-16 -6.3311274761802476e-15
  outer loop
    vertex -8.448812719065005 -20.671117007375344 80.35081351556721
    vertex -8.448812719065003 -16.67111700737535 80.3508135155672
    vertex -8.448812719065002 -16.739265354797222 80.86845160577224
  endloop
endfacet
facet normal 1.0 -4.163336342344728e-16 -6.3311274761802476e-15
  outer loop
    vertex -8.448812719065005 -20.671117007375344 80.35081351556721
    vertex -8.448812719065002 -16.739265354797222 80.86845160577224
    vertex -8.448812719065002 -20.602968659953508 80.86845160577224
  endloop
endfacet
facet normal 1.0 -4.163336342344728e-16 -6.3311274761802476e-15
  outer loop
    vertex -8.448812719065002 -20.602968659953508 80.86845160577224
    vertex -8.448812719065002 -16.739265354797222 80.86845160577224
    vertex -8.448812719064998 -20.403167814944208 81.35081351556721
  endloop
endfacet
facet normal 1.0 -4.163336342344728e-16 -6.3311274761802476e-15
  outer loop
    vertex -8.448812719064998 -20.403167814944208 81.35081351556721
    vertex -8.448812719065002 -16.739265354797222 80.86845160577224
    vertex -8.448812719064998 -16.939066199806476 81.3508135155672
  endloop
endfacet
facet normal 1.0 -4.163336342344728e-16 -6.3311274761802476e-15
  outer loop
    vertex -8.448812719064998 -20.403167814944208 81.35081351556721
    vertex -8.448812719064998 -16.939066199806476 81.3508135155672
    vertex -8.448812719064996 -17.256903445002237 81.76502707794027
  endloop
endfacet
facet normal 1.0 -4.163336342344728e-16 -6.3311274761802476e-15
  outer loop
    vertex -8.448812719064998 -20.403167814944208 81.35081351556721
    vertex -8.448812719064996 -17.256903445002237 81.76502707794027
    vertex -8.448812719064996 -20.085330569748436 81.76502707794029
  endloop
endfacet
facet normal 1.0 -4.163336342344728e-16 -6.3311274761802476e-15
  outer loop
    vertex -8.448812719064996 -20.085330569748436 81.76502707794029
    vertex -8.448812719064996 -17.256903445002237 81.76502707794027
    vertex -8.448812719064993 -17.67111700737534 82.08286432313606
  endloop
endfacet
facet normal 1.0 -4.163336342344728e-16 -6.3311274761802476e-15
  outer loop
    vertex -8.448812719064996 -20.085330569748436 81.76502707794029
    vertex -8.448812719064993 -17.67111700737534 82.08286432313606
    vertex -8.448812719064994 -19.671117007375337 82.08286432313608
  endloop
endfacet
facet normal 1.0 -4.163336342344728e-16 -6.3311274761802476e-15
  outer loop
    vertex -8.448812719064994 -19.671117007375337 82.08286432313608
    vertex -8.448812719064993 -17.67111700737534 82.08286432313606
    vertex -8.448812719064993 -18.15347891717027 82.28266516814531
  endloop
endfacet
facet normal 1.0 -4.163336342344728e-16 -6.3311274761802476e-15
  outer loop
    vertex -8.448812719064994 -19.671117007375337 82.08286432313608
    vertex -8.448812719064993 -18.15347891717027 82.28266516814531
    vertex -8.448812719064993 -19.188755097580405 82.28266516814531
  endloop
endfacet
facet normal 1.0 -4.163336342344728e-16 -6.3311274761802476e-15
  outer loop
    vertex -8.448812719064993 -19.188755097580405 82.28266516814531
    vertex -8.448812719064993 -18.15347891717027 82.28266516814531
    vertex -8.448812719064993 -18.671117007375337 82.3508135155672
  endloop
endfacet
facet normal -4.1360611964660056e-16 0.9914448613738126 -0.13052619222003578
  outer loop
    vertex -8.448812719065003 -16.67111700737535 80.3508135155672
    vertex -9.59212771906479 -16.739265354797183 79.83317542536214
    vertex -9.592127719064786 -16.67111700737535 80.3508135155672
  endloop
endfacet
facet normal -4.1360611964660056e-16 0.9914448613738126 -0.13052619222003578
  outer loop
    vertex -9.59212771906479 -16.739265354797183 79.83317542536214
    vertex -8.448812719065003 -16.67111700737535 80.3508135155672
    vertex -8.448812719065007 -16.739265354797183 79.83317542536214
  endloop
endfacet
facet normal 1.2391498042044936e-15 0.9914448613738087 0.13052619222006576
  outer loop
    vertex -8.448812719065002 -16.739265354797222 80.86845160577224
    vertex -9.592127719064786 -16.67111700737535 80.3508135155672
    vertex -9.592127719064784 -16.739265354797222 80.86845160577224
  endloop
endfacet
facet normal 1.2391498042044936e-15 0.9914448613738087 0.13052619222006576
  outer loop
    vertex -9.592127719064786 -16.67111700737535 80.3508135155672
    vertex -8.448812719065002 -16.739265354797222 80.86845160577224
    vertex -8.448812719065003 -16.67111700737535 80.3508135155672
  endloop
endfacet
facet normal 2.8074597166907953e-15 0.9238795325112908 0.38268343236508007
  outer loop
    vertex -8.448812719064998 -16.939066199806476 81.3508135155672
    vertex -9.592127719064784 -16.739265354797222 80.86845160577224
    vertex -9.59212771906478 -16.939066199806476 81.3508135155672
  endloop
endfacet
facet normal 2.8074597166907953e-15 0.9238795325112908 0.38268343236508007
  outer loop
    vertex -9.592127719064784 -16.739265354797222 80.86845160577224
    vertex -8.448812719064998 -16.939066199806476 81.3508135155672
    vertex -8.448812719065002 -16.739265354797222 80.86845160577224
  endloop
endfacet
facet normal 4.184445889031336e-15 0.7933533402912396 0.6087614290087149
  outer loop
    vertex -8.448812719064996 -17.256903445002237 81.76502707794027
    vertex -9.59212771906478 -16.939066199806476 81.3508135155672
    vertex -9.592127719064777 -17.256903445002237 81.76502707794027
  endloop
endfacet
facet normal 4.184445889031336e-15 0.7933533402912396 0.6087614290087149
  outer loop
    vertex -9.59212771906478 -16.939066199806476 81.3508135155672
    vertex -8.448812719064996 -17.256903445002237 81.76502707794027
    vertex -8.448812719064998 -16.939066199806476 81.3508135155672
  endloop
endfacet
facet normal 5.276268989158142e-15 0.6087614290087313 0.7933533402912271
  outer loop
    vertex -9.592127719064775 -17.67111700737534 82.08286432313606
    vertex -8.448812719064996 -17.256903445002237 81.76502707794027
    vertex -9.592127719064777 -17.256903445002237 81.76502707794027
  endloop
endfacet
facet normal 5.276268989158142e-15 0.6087614290087313 0.7933533402912271
  outer loop
    vertex -8.448812719064996 -17.256903445002237 81.76502707794027
    vertex -9.592127719064775 -17.67111700737534 82.08286432313606
    vertex -8.448812719064993 -17.67111700737534 82.08286432313606
  endloop
endfacet
facet normal 6.008523077120645e-15 0.3826834323650918 0.923879532511286
  outer loop
    vertex -9.592127719064775 -18.15347891717027 82.28266516814534
    vertex -8.448812719064993 -17.67111700737534 82.08286432313606
    vertex -9.592127719064775 -17.67111700737534 82.08286432313606
  endloop
endfacet
facet normal 6.008523077120645e-15 0.3826834323650918 0.923879532511286
  outer loop
    vertex -8.448812719064993 -17.67111700737534 82.08286432313606
    vertex -9.592127719064775 -18.15347891717027 82.28266516814534
    vertex -8.448812719064993 -18.15347891717027 82.28266516814531
  endloop
endfacet
facet normal 5.689875108804919e-15 -0.3826834323650801 0.9238795325112908
  outer loop
    vertex -9.592127719064777 -19.671117007375337 82.08286432313608
    vertex -8.448812719064993 -19.188755097580405 82.28266516814531
    vertex -9.592127719064775 -19.188755097580405 82.28266516814534
  endloop
endfacet
facet normal 5.689875108804919e-15 -0.3826834323650801 0.9238795325112908
  outer loop
    vertex -8.448812719064993 -19.188755097580405 82.28266516814531
    vertex -9.592127719064777 -19.671117007375337 82.08286432313608
    vertex -8.448812719064994 -19.671117007375337 82.08286432313608
  endloop
endfacet
facet normal 1.0 -4.163336342344728e-16 -6.3311274761802476e-15
  outer loop
    vertex -8.448812719064959 11.855471623067052 78.41896186298908
    vertex -8.448812719064959 10.82019544265696 78.41896186298908
    vertex -8.448812719064959 11.337833532861984 78.35081351556722
  endloop
endfacet
facet normal 1.0 -4.163336342344728e-16 -6.3311274761802476e-15
  outer loop
    vertex -8.448812719064959 10.82019544265696 78.41896186298908
    vertex -8.448812719064959 11.855471623067052 78.41896186298908
    vertex -8.448812719064959 12.337833532861984 78.61876270799833
  endloop
endfacet
facet normal 1.0 -4.163336342344728e-16 -6.3311274761802476e-15
  outer loop
    vertex -8.448812719064959 10.82019544265696 78.41896186298908
    vertex -8.448812719064959 12.337833532861984 78.61876270799833
    vertex -8.448812719064959 10.337833532861987 78.61876270799834
  endloop
endfacet
facet normal 1.0 -4.163336342344728e-16 -6.3311274761802476e-15
  outer loop
    vertex -8.448812719064959 10.337833532861987 78.61876270799834
    vertex -8.448812719064959 12.337833532861984 78.61876270799833
    vertex -8.448812719064955 12.752047095235085 78.93659995319412
  endloop
endfacet
facet normal 1.0 -4.163336342344728e-16 -6.3311274761802476e-15
  outer loop
    vertex -8.448812719064959 10.337833532861987 78.61876270799834
    vertex -8.448812719064955 12.752047095235085 78.93659995319412
    vertex -8.448812719064955 9.923619970488911 78.93659995319413
  endloop
endfacet
facet normal 1.0 -4.163336342344728e-16 -6.3311274761802476e-15
  outer loop
    vertex -8.448812719064955 9.923619970488911 78.93659995319413
    vertex -8.448812719064955 12.752047095235085 78.93659995319412
    vertex -8.448812719064954 13.069884340430878 79.35081351556722
  endloop
endfacet
facet normal 1.0 -4.163336342344728e-16 -6.3311274761802476e-15
  outer loop
    vertex -8.448812719064955 9.923619970488911 78.93659995319413
    vertex -8.448812719064954 13.069884340430878 79.35081351556722
    vertex -8.448812719064954 9.605782725293123 79.35081351556724
  endloop
endfacet
facet normal 1.0 -4.163336342344728e-16 -6.3311274761802476e-15
  outer loop
    vertex -8.448812719064954 9.605782725293123 79.35081351556724
    vertex -8.448812719064954 13.069884340430878 79.35081351556722
    vertex -8.44881271906495 13.269685185440137 79.83317542536216
  endloop
endfacet
facet normal 1.0 -4.163336342344728e-16 -6.3311274761802476e-15
  outer loop
    vertex -8.448812719064954 9.605782725293123 79.35081351556724
    vertex -8.44881271906495 13.269685185440137 79.83317542536216
    vertex -8.448812719064952 9.405981880283871 79.8331754253622
  endloop
endfacet
facet normal 1.0 -4.163336342344728e-16 -6.3311274761802476e-15
  outer loop
    vertex -8.448812719064952 9.405981880283871 79.8331754253622
    vertex -8.44881271906495 13.269685185440137 79.83317542536216
    vertex -8.448812719064946 13.337833532861994 80.35081351556721
  endloop
endfacet
facet normal 1.0 -4.163336342344728e-16 -6.3311274761802476e-15
  outer loop
    vertex -8.448812719064952 9.405981880283871 79.8331754253622
    vertex -8.448812719064946 13.337833532861994 80.35081351556721
    vertex -8.448812719064948 9.337833532862 80.35081351556724
  endloop
endfacet
facet normal 1.0 -4.163336342344728e-16 -6.3311274761802476e-15
  outer loop
    vertex -8.448812719064948 9.337833532862 80.35081351556724
    vertex -8.448812719064946 13.337833532861994 80.35081351556721
    vertex -8.448812719064941 13.269685185440144 80.86845160577225
  endloop
endfacet
facet normal 1.0 -4.163336342344728e-16 -6.3311274761802476e-15
  outer loop
    vertex -8.448812719064948 9.337833532862 80.35081351556724
    vertex -8.448812719064941 13.269685185440144 80.86845160577225
    vertex -8.448812719064945 9.405981880283878 80.86845160577226
  endloop
endfacet
facet normal 1.0 -4.163336342344728e-16 -6.3311274761802476e-15
  outer loop
    vertex -8.448812719064945 9.405981880283878 80.86845160577226
    vertex -8.448812719064941 13.269685185440144 80.86845160577225
    vertex -8.448812719064941 9.605782725293135 81.35081351556721
  endloop
endfacet
facet normal 1.0 -4.163336342344728e-16 -6.3311274761802476e-15
  outer loop
    vertex -8.448812719064941 9.605782725293135 81.35081351556721
    vertex -8.448812719064941 13.269685185440144 80.86845160577225
    vertex -8.44881271906494 13.069884340430892 81.3508135155672
  endloop
endfacet
facet normal 1.0 -4.163336342344728e-16 -6.3311274761802476e-15
  outer loop
    vertex -8.448812719064941 9.605782725293135 81.35081351556721
    vertex -8.44881271906494 13.069884340430892 81.3508135155672
    vertex -8.448812719064938 12.752047095235104 81.76502707794029
  endloop
endfacet
facet normal 1.0 -4.163336342344728e-16 -6.3311274761802476e-15
  outer loop
    vertex -8.448812719064941 9.605782725293135 81.35081351556721
    vertex -8.448812719064938 12.752047095235104 81.76502707794029
    vertex -8.44881271906494 9.923619970488906 81.76502707794029
  endloop
endfacet
facet normal 1.0 -4.163336342344728e-16 -6.3311274761802476e-15
  outer loop
    vertex -8.44881271906494 9.923619970488906 81.76502707794029
    vertex -8.448812719064938 12.752047095235104 81.76502707794029
    vertex -8.448812719064936 12.337833532862005 82.08286432313608
  endloop
endfacet
facet normal 1.0 -4.163336342344728e-16 -6.3311274761802476e-15
  outer loop
    vertex -8.44881271906494 9.923619970488906 81.76502707794029
    vertex -8.448812719064936 12.337833532862005 82.08286432313608
    vertex -8.448812719064936 10.337833532862009 82.08286432313608
  endloop
endfacet
facet normal 1.0 -4.163336342344728e-16 -6.3311274761802476e-15
  outer loop
    vertex -8.448812719064936 10.337833532862009 82.08286432313608
    vertex -8.448812719064936 12.337833532862005 82.08286432313608
    vertex -8.448812719064934 11.855471623067054 82.28266516814534
  endloop
endfacet
facet normal 1.0 -4.163336342344728e-16 -6.3311274761802476e-15
  outer loop
    vertex -8.448812719064936 10.337833532862009 82.08286432313608
    vertex -8.448812719064934 11.855471623067054 82.28266516814534
    vertex -8.448812719064936 10.820195442656985 82.28266516814534
  endloop
endfacet
facet normal 1.0 -4.163336342344728e-16 -6.3311274761802476e-15
  outer loop
    vertex -8.448812719064936 10.820195442656985 82.28266516814534
    vertex -8.448812719064934 11.855471623067054 82.28266516814534
    vertex -8.448812719064934 11.337833532862007 82.35081351556721
  endloop
endfacet
facet normal 6.3313062469311976e-15 0.13052619222007827 0.9914448613738069
  outer loop
    vertex -9.592127719064775 -18.671117007375337 82.35081351556721
    vertex -8.448812719064993 -18.15347891717027 82.28266516814531
    vertex -9.592127719064775 -18.15347891717027 82.28266516814534
  endloop
endfacet
facet normal 6.3313062469311976e-15 0.13052619222007827 0.9914448613738069
  outer loop
    vertex -8.448812719064993 -18.15347891717027 82.28266516814531
    vertex -9.592127719064775 -18.671117007375337 82.35081351556721
    vertex -8.448812719064993 -18.671117007375337 82.3508135155672
  endloop
endfacet
facet normal 6.22262135899167e-15 -0.13052619222006576 0.9914448613738087
  outer loop
    vertex -9.592127719064775 -19.188755097580405 82.28266516814534
    vertex -8.448812719064993 -18.671117007375337 82.3508135155672
    vertex -9.592127719064775 -18.671117007375337 82.35081351556721
  endloop
endfacet
facet normal 6.22262135899167e-15 -0.13052619222006576 0.9914448613738087
  outer loop
    vertex -8.448812719064993 -18.671117007375337 82.3508135155672
    vertex -9.592127719064775 -19.188755097580405 82.28266516814534
    vertex -8.448812719064993 -19.188755097580405 82.28266516814531
  endloop
endfacet
facet normal -3.5238465302404264e-15 0.7933533402912271 -0.6087614290087314
  outer loop
    vertex -8.448812719064954 13.069884340430878 79.35081351556722
    vertex -9.592127719064784 12.752047095235085 78.93659995319412
    vertex -9.59212771906478 13.069884340430882 79.35081351556722
  endloop
endfacet
facet normal -3.5238465302404264e-15 0.7933533402912271 -0.6087614290087314
  outer loop
    vertex -9.592127719064784 12.752047095235085 78.93659995319412
    vertex -8.448812719064954 13.069884340430878 79.35081351556722
    vertex -8.448812719064955 12.752047095235085 78.93659995319412
  endloop
endfacet
facet normal -2.0381754699603277e-15 0.923879532511286 -0.38268343236509167
  outer loop
    vertex -8.44881271906495 13.269685185440137 79.83317542536216
    vertex -9.59212771906478 13.069884340430882 79.35081351556722
    vertex -9.592127719064777 13.269685185440137 79.83317542536217
  endloop
endfacet
facet normal -2.0381754699603277e-15 0.923879532511286 -0.38268343236509167
  outer loop
    vertex -9.59212771906478 13.069884340430882 79.35081351556722
    vertex -8.44881271906495 13.269685185440137 79.83317542536216
    vertex -8.448812719064954 13.069884340430878 79.35081351556722
  endloop
endfacet
facet normal -4.136061196467364e-16 0.9914448613738097 -0.13052619222005704
  outer loop
    vertex -8.448812719064946 13.337833532861994 80.35081351556721
    vertex -9.592127719064777 13.269685185440137 79.83317542536217
    vertex -9.592127719064774 13.337833532861994 80.35081351556721
  endloop
endfacet
facet normal -4.136061196467364e-16 0.9914448613738097 -0.13052619222005704
  outer loop
    vertex -9.592127719064777 13.269685185440137 79.83317542536217
    vertex -8.448812719064946 13.337833532861994 80.35081351556721
    vertex -8.44881271906495 13.269685185440137 79.83317542536216
  endloop
endfacet
facet normal 1.23914980420436e-15 0.9914448613738115 0.1305261922200445
  outer loop
    vertex -8.448812719064941 13.269685185440144 80.86845160577225
    vertex -9.592127719064774 13.337833532861994 80.35081351556721
    vertex -9.59212771906477 13.269685185440144 80.86845160577226
  endloop
endfacet
facet normal 1.23914980420436e-15 0.9914448613738115 0.1305261922200445
  outer loop
    vertex -9.592127719064774 13.337833532861994 80.35081351556721
    vertex -8.448812719064941 13.269685185440144 80.86845160577225
    vertex -8.448812719064946 13.337833532861994 80.35081351556721
  endloop
endfacet
facet normal 4.769373272916241e-15 -0.6087614290087213 0.7933533402912346
  outer loop
    vertex -9.592127719064777 -20.085330569748436 81.76502707794029
    vertex -8.448812719064994 -19.671117007375337 82.08286432313608
    vertex -9.592127719064777 -19.671117007375337 82.08286432313608
  endloop
endfacet
facet normal 4.769373272916241e-15 -0.6087614290087213 0.7933533402912346
  outer loop
    vertex -8.448812719064994 -19.671117007375337 82.08286432313608
    vertex -9.592127719064777 -20.085330569748436 81.76502707794029
    vertex -8.448812719064996 -20.085330569748436 81.76502707794029
  endloop
endfacet
facet normal 3.523846530240383e-15 -0.7933533402912318 0.608761429008725
  outer loop
    vertex -8.448812719064998 -20.403167814944208 81.35081351556721
    vertex -9.592127719064777 -20.085330569748436 81.76502707794029
    vertex -9.59212771906478 -20.403167814944208 81.35081351556721
  endloop
endfacet
facet normal 3.523846530240383e-15 -0.7933533402912318 0.608761429008725
  outer loop
    vertex -9.592127719064777 -20.085330569748436 81.76502707794029
    vertex -8.448812719064998 -20.403167814944208 81.35081351556721
    vertex -8.448812719064996 -20.085330569748436 81.76502707794029
  endloop
endfacet
facet normal 2.0381754699604693e-15 -0.9238795325112771 0.38268343236511343
  outer loop
    vertex -8.448812719065002 -20.602968659953508 80.86845160577224
    vertex -9.59212771906478 -20.403167814944208 81.35081351556721
    vertex -9.592127719064784 -20.602968659953508 80.86845160577225
  endloop
endfacet
facet normal 2.0381754699604693e-15 -0.9238795325112771 0.38268343236511343
  outer loop
    vertex -9.59212771906478 -20.403167814944208 81.35081351556721
    vertex -8.448812719065002 -20.602968659953508 80.86845160577224
    vertex -8.448812719064998 -20.403167814944208 81.35081351556721
  endloop
endfacet
facet normal 4.1360611964663625e-16 -0.9914448613738117 0.13052619222004136
  outer loop
    vertex -8.448812719065005 -20.671117007375344 80.35081351556721
    vertex -9.592127719064784 -20.602968659953508 80.86845160577225
    vertex -9.592127719064788 -20.671117007375344 80.35081351556722
  endloop
endfacet
facet normal 4.1360611964663625e-16 -0.9914448613738117 0.13052619222004136
  outer loop
    vertex -9.592127719064784 -20.602968659953508 80.86845160577225
    vertex -8.448812719065005 -20.671117007375344 80.35081351556721
    vertex -8.448812719065002 -20.602968659953508 80.86845160577224
  endloop
endfacet
facet normal -1.2391498042044936e-15 -0.9914448613738087 -0.13052619222006576
  outer loop
    vertex -8.44881271906501 -20.60296865995347 79.83317542536217
    vertex -9.592127719064788 -20.671117007375344 80.35081351556722
    vertex -9.592127719064791 -20.60296865995347 79.83317542536219
  endloop
endfacet
facet normal -1.2391498042044936e-15 -0.9914448613738087 -0.13052619222006576
  outer loop
    vertex -9.592127719064788 -20.671117007375344 80.35081351556722
    vertex -8.44881271906501 -20.60296865995347 79.83317542536217
    vertex -8.448812719065005 -20.671117007375344 80.35081351556721
  endloop
endfacet
facet normal -2.8074597166907953e-15 -0.9238795325112908 -0.38268343236508007
  outer loop
    vertex -8.448812719065012 -20.403167814944222 79.35081351556722
    vertex -9.592127719064791 -20.60296865995347 79.83317542536219
    vertex -9.592127719064795 -20.403167814944222 79.35081351556722
  endloop
endfacet
facet normal -2.8074597166907953e-15 -0.9238795325112908 -0.38268343236508007
  outer loop
    vertex -9.592127719064791 -20.60296865995347 79.83317542536219
    vertex -8.448812719065012 -20.403167814944222 79.35081351556722
    vertex -8.44881271906501 -20.60296865995347 79.83317542536217
  endloop
endfacet
facet normal -4.1844458890312105e-15 -0.7933533402912556 -0.6087614290086941
  outer loop
    vertex -8.448812719065016 -20.085330569748454 78.93659995319412
    vertex -9.592127719064795 -20.403167814944222 79.35081351556722
    vertex -9.592127719064797 -20.085330569748454 78.93659995319412
  endloop
endfacet
facet normal -4.1844458890312105e-15 -0.7933533402912556 -0.6087614290086941
  outer loop
    vertex -9.592127719064795 -20.403167814944222 79.35081351556722
    vertex -8.448812719065016 -20.085330569748454 78.93659995319412
    vertex -8.448812719065012 -20.403167814944222 79.35081351556722
  endloop
endfacet
facet normal -5.276268989158141e-15 -0.6087614290087314 -0.7933533402912271
  outer loop
    vertex -8.448812719065016 -20.085330569748454 78.93659995319412
    vertex -9.592127719064798 -19.671117007375358 78.61876270799833
    vertex -8.448812719065018 -19.671117007375358 78.61876270799833
  endloop
endfacet
facet normal -5.276268989158141e-15 -0.6087614290087314 -0.7933533402912271
  outer loop
    vertex -9.592127719064798 -19.671117007375358 78.61876270799833
    vertex -8.448812719065016 -20.085330569748454 78.93659995319412
    vertex -9.592127719064797 -20.085330569748454 78.93659995319412
  endloop
endfacet
facet normal -6.008523077120645e-15 -0.3826834323650918 -0.923879532511286
  outer loop
    vertex -8.448812719065018 -19.671117007375358 78.61876270799833
    vertex -9.592127719064798 -19.188755097580426 78.41896186298908
    vertex -8.448812719065018 -19.188755097580426 78.41896186298908
  endloop
endfacet
facet normal -6.008523077120645e-15 -0.3826834323650918 -0.923879532511286
  outer loop
    vertex -9.592127719064798 -19.188755097580426 78.41896186298908
    vertex -8.448812719065018 -19.671117007375358 78.61876270799833
    vertex -9.592127719064798 -19.671117007375358 78.61876270799833
  endloop
endfacet
facet normal -6.3313062469312165e-15 -0.13052619222003578 -0.9914448613738126
  outer loop
    vertex -8.448812719065018 -19.188755097580426 78.41896186298908
    vertex -9.5921277190648 -18.671117007375358 78.35081351556722
    vertex -8.448812719065018 -18.671117007375358 78.35081351556721
  endloop
endfacet
facet normal -6.3313062469312165e-15 -0.13052619222003578 -0.9914448613738126
  outer loop
    vertex -9.5921277190648 -18.671117007375358 78.35081351556722
    vertex -8.448812719065018 -19.188755097580426 78.41896186298908
    vertex -9.592127719064798 -19.188755097580426 78.41896186298908
  endloop
endfacet
facet normal -6.222621358991722e-15 0.13052619222002323 -0.9914448613738142
  outer loop
    vertex -8.448812719065018 -18.671117007375358 78.35081351556721
    vertex -9.592127719064798 -18.15347891717029 78.41896186298908
    vertex -8.448812719065018 -18.15347891717029 78.41896186298906
  endloop
endfacet
facet normal -6.222621358991722e-15 0.13052619222002323 -0.9914448613738142
  outer loop
    vertex -9.592127719064798 -18.15347891717029 78.41896186298908
    vertex -8.448812719065018 -18.671117007375358 78.35081351556721
    vertex -9.5921277190648 -18.671117007375358 78.35081351556722
  endloop
endfacet
facet normal -5.689875108804919e-15 0.3826834323650801 -0.9238795325112908
  outer loop
    vertex -8.448812719065018 -18.15347891717029 78.41896186298906
    vertex -9.592127719064797 -17.67111700737536 78.61876270799831
    vertex -8.448812719065016 -17.67111700737536 78.6187627079983
  endloop
endfacet
facet normal -5.689875108804919e-15 0.3826834323650801 -0.9238795325112908
  outer loop
    vertex -9.592127719064797 -17.67111700737536 78.61876270799831
    vertex -8.448812719065018 -18.15347891717029 78.41896186298906
    vertex -9.592127719064798 -18.15347891717029 78.41896186298908
  endloop
endfacet
facet normal -4.769373272916243e-15 0.6087614290087213 -0.7933533402912348
  outer loop
    vertex -8.448812719065016 -17.67111700737536 78.6187627079983
    vertex -9.592127719064795 -17.256903445002255 78.9365999531941
    vertex -8.448812719065012 -17.256903445002255 78.93659995319409
  endloop
endfacet
facet normal -4.769373272916243e-15 0.6087614290087213 -0.7933533402912348
  outer loop
    vertex -9.592127719064795 -17.256903445002255 78.9365999531941
    vertex -8.448812719065016 -17.67111700737536 78.6187627079983
    vertex -9.592127719064797 -17.67111700737536 78.61876270799831
  endloop
endfacet
facet normal -3.5238465302402437e-15 0.7933533402912478 -0.6087614290087041
  outer loop
    vertex -8.44881271906501 -16.939066199806486 79.3508135155672
    vertex -9.592127719064795 -17.256903445002255 78.9365999531941
    vertex -9.592127719064791 -16.939066199806486 79.35081351556721
  endloop
endfacet
facet normal -3.5238465302402437e-15 0.7933533402912478 -0.6087614290087041
  outer loop
    vertex -9.592127719064795 -17.256903445002255 78.9365999531941
    vertex -8.44881271906501 -16.939066199806486 79.3508135155672
    vertex -8.448812719065012 -17.256903445002255 78.93659995319409
  endloop
endfacet
facet normal -2.0381754699605687e-15 0.9238795325112709 -0.3826834323651287
  outer loop
    vertex -8.448812719065007 -16.739265354797183 79.83317542536214
    vertex -9.592127719064791 -16.939066199806486 79.35081351556721
    vertex -9.59212771906479 -16.739265354797183 79.83317542536214
  endloop
endfacet
facet normal -2.0381754699605687e-15 0.9238795325112709 -0.3826834323651287
  outer loop
    vertex -9.592127719064791 -16.939066199806486 79.35081351556721
    vertex -8.448812719065007 -16.739265354797183 79.83317542536214
    vertex -8.44881271906501 -16.939066199806486 79.3508135155672
  endloop
endfacet
facet normal 4.1360611964677194e-16 -0.991444861373809 0.13052619222006262
  outer loop
    vertex -8.448812719064948 9.337833532862 80.35081351556724
    vertex -9.592127719064772 9.405981880283878 80.86845160577226
    vertex -9.592127719064775 9.337833532862001 80.35081351556724
  endloop
endfacet
facet normal 4.1360611964677194e-16 -0.991444861373809 0.13052619222006262
  outer loop
    vertex -9.592127719064772 9.405981880283878 80.86845160577226
    vertex -8.448812719064948 9.337833532862 80.35081351556724
    vertex -8.448812719064945 9.405981880283878 80.86845160577226
  endloop
endfacet
facet normal 2.038175469960229e-15 -0.9238795325112924 0.3826834323650765
  outer loop
    vertex -8.448812719064945 9.405981880283878 80.86845160577226
    vertex -9.59212771906477 9.605782725293135 81.35081351556724
    vertex -9.592127719064772 9.405981880283878 80.86845160577226
  endloop
endfacet
facet normal 2.038175469960229e-15 -0.9238795325112924 0.3826834323650765
  outer loop
    vertex -9.59212771906477 9.605782725293135 81.35081351556724
    vertex -8.448812719064945 9.405981880283878 80.86845160577226
    vertex -8.448812719064941 9.605782725293135 81.35081351556721
  endloop
endfacet
facet normal 3.523846530240474e-15 -0.7933533402912215 0.6087614290087386
  outer loop
    vertex -8.448812719064941 9.605782725293135 81.35081351556721
    vertex -9.592127719064766 9.923619970488907 81.76502707794032
    vertex -9.59212771906477 9.605782725293135 81.35081351556724
  endloop
endfacet
facet normal 3.523846530240474e-15 -0.7933533402912215 0.6087614290087386
  outer loop
    vertex -9.592127719064766 9.923619970488907 81.76502707794032
    vertex -8.448812719064941 9.605782725293135 81.35081351556721
    vertex -8.44881271906494 9.923619970488906 81.76502707794029
  endloop
endfacet
facet normal 4.769373272916243e-15 -0.6087614290087213 0.7933533402912348
  outer loop
    vertex -9.592127719064766 9.923619970488907 81.76502707794032
    vertex -8.448812719064936 10.337833532862009 82.08286432313608
    vertex -9.592127719064763 10.337833532862009 82.0828643231361
  endloop
endfacet
facet normal 4.769373272916243e-15 -0.6087614290087213 0.7933533402912348
  outer loop
    vertex -8.448812719064936 10.337833532862009 82.08286432313608
    vertex -9.592127719064766 9.923619970488907 81.76502707794032
    vertex -8.44881271906494 9.923619970488906 81.76502707794029
  endloop
endfacet
facet normal 6.056266599330143e-15 1.0 -6.331127476180271e-15
  outer loop
    vertex -9.592127719064893 -13.67111700737533 70.35081351556722
    vertex -13.592127719064994 -13.671117007375345 60.35081351556727
    vertex -13.592127719064932 -13.671117007375283 70.35081351556727
  endloop
endfacet
facet normal 6.056266599330143e-15 1.0 -6.331127476180271e-15
  outer loop
    vertex -13.592127719064994 -13.671117007375345 60.35081351556727
    vertex -9.592127719064893 -13.67111700737533 70.35081351556722
    vertex -9.592127719064912 -13.671117007375392 60.35081351556722
  endloop
endfacet
facet normal 1.1971060441275908e-14 -4.3376460999373973e-16 1.0
  outer loop
    vertex -13.592127719064994 -13.671117007375345 60.35081351556727
    vertex -9.592127719064948 6.33783353286206 60.35081351556723
    vertex -13.592127719064985 6.337833532862084 60.350813515567275
  endloop
endfacet
facet normal 1.1971060441275908e-14 -4.3376460999373973e-16 1.0
  outer loop
    vertex -9.592127719064948 6.33783353286206 60.35081351556723
    vertex -13.592127719064994 -13.671117007375345 60.35081351556727
    vertex -9.592127719064912 -13.671117007375392 60.35081351556722
  endloop
endfacet
facet normal -8.876233081878127e-15 -1.0 -4.367920819347407e-16
  outer loop
    vertex -9.592127719064948 6.33783353286206 60.35081351556723
    vertex -13.592127719064923 6.3378335328620805 70.35081351556714
    vertex -13.592127719064985 6.337833532862084 60.350813515567275
  endloop
endfacet
facet normal -8.876233081878127e-15 -1.0 -4.367920819347407e-16
  outer loop
    vertex -13.592127719064923 6.3378335328620805 70.35081351556714
    vertex -9.592127719064948 6.33783353286206 60.35081351556723
    vertex -9.592127719064885 6.337833532862033 70.3508135155671
  endloop
endfacet
facet normal -1.1971060441275992e-14 -6.331127476180244e-15 -1.0
  outer loop
    vertex -9.592127719064885 6.337833532862033 70.3508135155671
    vertex -13.592127719064932 -13.671117007375283 70.35081351556727
    vertex -13.592127719064923 6.3378335328620805 70.35081351556714
  endloop
endfacet
facet normal -1.1971060441275992e-14 -6.331127476180244e-15 -1.0
  outer loop
    vertex -13.592127719064932 -13.671117007375283 70.35081351556727
    vertex -9.592127719064885 6.337833532862033 70.3508135155671
    vertex -9.592127719064893 -13.67111700737533 70.35081351556722
  endloop
endfacet
endsolid PYVISTA_1
